<svg width="40" height="40" viewBox="0 0 40 40" fill="none" xmlns="http://www.w3.org/2000/svg">
  <!-- Stylized "A" symbol with cosmic elements -->
  <g>
    <!-- Main "A" shape -->
    <path d="M19.6501 36.0833L15.0368 38.6971L14.499 39.0018L11.2502 37.1612L9.92927 36.4131L7.10751 34.8142L2 31.9209V16.8309L2.21622 16.7083L7.10751 13.9376V28.979L9.92927 30.5779L11.2502 31.326L15.0368 33.4694L16.3995 34.2427L19.6501 36.0833Z" fill="#6c5ce7"/>
    <path d="M27.8101 5.6148L24.8067 3.9149L19.6574 1L14.5062 3.9149L11.4973 5.62021L9.92747 6.50712L7.10571 8.10607V13.9395L9.92747 12.3423L11.4955 11.4554L15.035 9.44905L16.6466 8.5351L19.6574 6.83159L22.659 8.5315L24.1471 9.37334V12.7822L19.6501 10.2368L15.0368 12.8489L14.4972 13.1553L9.92929 15.7421V26.9132L14.4863 29.4946L15.0368 29.8065L19.6374 32.4113L24.1471 29.8587L24.7867 29.4964L29.2528 26.9673V12.2666L32.2617 13.9701V8.13672L27.8101 5.6148ZM24.1471 24.0235L19.6374 26.5761L15.0368 23.9694V18.6841L19.6501 16.0702L24.1471 18.6156V24.0199V24.0235Z" fill="#3498db"/>
    <path d="M37.3691 16.8616V26.0498L37.3183 26.0786L37.3691 26.1074V31.885L32.2616 34.7782L29.2527 36.4817L28.0372 37.1703L24.7993 39.0036L24.147 38.6341L19.65 36.0869L22.8861 34.2536L24.147 33.5416L28.0372 31.3387L29.2527 30.6483L32.2616 28.9448V13.9738L37.0802 16.703L37.3691 16.867V16.8616Z" fill="#6c5ce7"/>
  </g>
  
  <!-- Cosmic dust/stars effect -->
  <circle cx="5" cy="5" r="0.8" fill="#87ceeb" opacity="0.8"/>
  <circle cx="10" cy="3" r="0.6" fill="#87ceeb" opacity="0.7"/>
  <circle cx="15" cy="7" r="0.7" fill="#87ceeb" opacity="0.9"/>
  <circle cx="25" cy="4" r="0.5" fill="#87ceeb" opacity="0.6"/>
  <circle cx="30" cy="6" r="0.7" fill="#87ceeb" opacity="0.8"/>
  <circle cx="35" cy="3" r="0.6" fill="#87ceeb" opacity="0.7"/>
</svg>
