<svg width="172" height="38" viewBox="0 0 172 38" fill="none" xmlns="http://www.w3.org/2000/svg">
  <!-- Stylized "A" symbol with cosmic elements -->
  <g>
    <!-- Main "A" shape -->
    <path d="M17.6501 35.0833L13.0368 37.6971L12.499 38.0018L9.2502 36.1612L7.92927 35.4131L5.10751 33.8142L0 30.9209V15.8309L0.21622 15.7083L5.10751 12.9376V27.979L7.92927 29.5779L9.2502 30.326L13.0368 32.4694L14.3995 33.2427L17.6501 35.0833Z" fill="#6c5ce7"/>
    <path d="M25.8101 4.6148L22.8067 2.9149L17.6574 0L12.5062 2.9149L9.49733 4.62021L7.92747 5.50712L5.10571 7.10607V12.9395L7.92747 11.3423L9.49552 10.4554L13.035 8.44905L14.6466 7.5351L17.6574 5.83159L20.659 7.5315L22.1471 8.37334V11.7822L17.6501 9.23681L13.0368 11.8489L12.4972 12.1553L7.92929 14.7421V25.9132L12.4863 28.4946L13.0368 28.8065L17.6374 31.4113L22.1471 28.8587L22.7867 28.4964L27.2528 25.9673V11.2666L30.2617 12.9701V7.13672L25.8101 4.6148ZM22.1471 23.0235L17.6374 25.5761L13.0368 22.9694V17.6841L17.6501 15.0702L22.1471 17.6156V23.0199V23.0235Z" fill="#3498db"/>
    <path d="M35.3691 15.8616V25.0498L35.3183 25.0786L35.3691 25.1074V30.885L30.2616 33.7782L27.2527 35.4817L26.0372 36.1703L22.7993 38.0036L22.147 37.6341L17.65 35.0869L20.8861 33.2536L22.147 32.5416L26.0372 30.3387L27.2527 29.6483L30.2616 27.9448V12.9738L35.0802 15.703L35.3691 15.867V15.8616Z" fill="#6c5ce7"/>
  </g>
  
  <!-- Text "AETHEREON" -->
  <path d="M47.5 26L51.5 10H56L60 26H56.5L55.5 22H52L51 26H47.5ZM52.5 19H55L53.75 14L52.5 19Z" fill="white"/>
  <path d="M62 26V10H71V13H65.5V16.5H70V19.5H65.5V23H71V26H62Z" fill="white"/>
  <path d="M73 26V10H76.5V23H82V26H73Z" fill="white"/>
  <path d="M84 26V10H87.5V16.5H91V10H94.5V26H91V19.5H87.5V26H84Z" fill="white"/>
  <path d="M97 26V10H106V13H100.5V16.5H105V19.5H100.5V23H106V26H97Z" fill="white"/>
  <path d="M108 26V10H111.5V19.5L115 10H118.5V26H115V16.5L111.5 26H108Z" fill="white"/>
  <path d="M121 26V10H130V13H124.5V16.5H129V19.5H124.5V23H130V26H121Z" fill="white"/>
  <path d="M132 26V10H138.5C140.167 10 141.417 10.4167 142.25 11.25C143.083 12.0833 143.5 13.25 143.5 14.75C143.5 16.25 143.083 17.4167 142.25 18.25C141.417 19.0833 140.167 19.5 138.5 19.5H135.5V26H132ZM135.5 16.5H138.5C139.167 16.5 139.667 16.3333 140 16C140.333 15.6667 140.5 15.25 140.5 14.75C140.5 14.25 140.333 13.8333 140 13.5C139.667 13.1667 139.167 13 138.5 13H135.5V16.5Z" fill="white"/>
  <path d="M146 26V10H155V13H149.5V16.5H154V19.5H149.5V23H155V26H146Z" fill="white"/>
  <path d="M157 26V10H160.5V19.5L164 10H167.5V26H164V16.5L160.5 26H157Z" fill="white"/>
  
  <!-- Cosmic dust/stars effect -->
  <circle cx="45" cy="8" r="0.8" fill="#87ceeb" opacity="0.8"/>
  <circle cx="55" cy="7" r="0.6" fill="#87ceeb" opacity="0.7"/>
  <circle cx="65" cy="9" r="0.7" fill="#87ceeb" opacity="0.9"/>
  <circle cx="75" cy="6" r="0.5" fill="#87ceeb" opacity="0.6"/>
  <circle cx="85" cy="8" r="0.7" fill="#87ceeb" opacity="0.8"/>
  <circle cx="95" cy="7" r="0.6" fill="#87ceeb" opacity="0.7"/>
  <circle cx="105" cy="9" r="0.8" fill="#87ceeb" opacity="0.9"/>
  <circle cx="115" cy="6" r="0.5" fill="#87ceeb" opacity="0.6"/>
  <circle cx="125" cy="8" r="0.7" fill="#87ceeb" opacity="0.8"/>
  <circle cx="135" cy="7" r="0.6" fill="#87ceeb" opacity="0.7"/>
  <circle cx="145" cy="9" r="0.7" fill="#87ceeb" opacity="0.9"/>
  <circle cx="155" cy="6" r="0.5" fill="#87ceeb" opacity="0.6"/>
  <circle cx="165" cy="8" r="0.8" fill="#87ceeb" opacity="0.8"/>
</svg>
