<svg width="500" height="400" viewBox="0 0 500 400" fill="none" xmlns="http://www.w3.org/2000/svg">
  <!-- Space station main structure -->
  <g filter="url(#filter0_d)">
    <!-- Central hub -->
    <circle cx="250" cy="200" r="80" fill="#2c3e50" stroke="#3498db" stroke-width="2"/>
    
    <!-- Outer ring -->
    <circle cx="250" cy="200" r="120" fill="none" stroke="#6c5ce7" stroke-width="4" stroke-dasharray="10 5"/>
    
    <!-- Solar panels -->
    <rect x="100" y="180" width="100" height="40" fill="#9575cd" stroke="#3498db" stroke-width="2"/>
    <rect x="300" y="180" width="100" height="40" fill="#9575cd" stroke="#3498db" stroke-width="2"/>
    
    <!-- Connection arms -->
    <line x1="180" y1="200" x2="200" y2="200" stroke="#3498db" stroke-width="4"/>
    <line x1="300" y1="200" x2="320" y2="200" stroke="#3498db" stroke-width="4"/>
    
    <!-- Docking ports -->
    <circle cx="250" cy="120" r="15" fill="#2c3e50" stroke="#3498db" stroke-width="2"/>
    <circle cx="250" cy="280" r="15" fill="#2c3e50" stroke="#3498db" stroke-width="2"/>
    
    <!-- Communication dishes -->
    <circle cx="190" cy="150" r="10" fill="none" stroke="#6c5ce7" stroke-width="2" transform="rotate(-30 190 150)"/>
    <circle cx="310" cy="150" r="10" fill="none" stroke="#6c5ce7" stroke-width="2" transform="rotate(30 310 150)"/>
    
    <!-- Thrusters -->
    <circle cx="220" cy="260" r="8" fill="#3498db" opacity="0.8">
      <animate attributeName="opacity" values="0.8;0.4;0.8" dur="2s" repeatCount="indefinite"/>
    </circle>
    <circle cx="280" cy="260" r="8" fill="#3498db" opacity="0.8">
      <animate attributeName="opacity" values="0.8;0.4;0.8" dur="2s" repeatCount="indefinite"/>
    </circle>
    
    <!-- Windows -->
    <circle cx="250" cy="180" r="5" fill="#87ceeb"/>
    <circle cx="230" cy="200" r="5" fill="#87ceeb"/>
    <circle cx="270" cy="200" r="5" fill="#87ceeb"/>
    <circle cx="250" cy="220" r="5" fill="#87ceeb"/>
    
    <!-- Aethereon logo in the center -->
    <g transform="translate(225, 175) scale(0.5)">
      <path d="M17.6501 35.0833L13.0368 37.6971L12.499 38.0018L9.2502 36.1612L7.92927 35.4131L5.10751 33.8142L0 30.9209V15.8309L0.21622 15.7083L5.10751 12.9376V27.979L7.92927 29.5779L9.2502 30.326L13.0368 32.4694L14.3995 33.2427L17.6501 35.0833Z" fill="#6c5ce7"/>
      <path d="M25.8101 4.6148L22.8067 2.9149L17.6574 0L12.5062 2.9149L9.49733 4.62021L7.92747 5.50712L5.10571 7.10607V12.9395L7.92747 11.3423L9.49552 10.4554L13.035 8.44905L14.6466 7.5351L17.6574 5.83159L20.659 7.5315L22.1471 8.37334V11.7822L17.6501 9.23681L13.0368 11.8489L12.4972 12.1553L7.92929 14.7421V25.9132L12.4863 28.4946L13.0368 28.8065L17.6374 31.4113L22.1471 28.8587L22.7867 28.4964L27.2528 25.9673V11.2666L30.2617 12.9701V7.13672L25.8101 4.6148ZM22.1471 23.0235L17.6374 25.5761L13.0368 22.9694V17.6841L17.6501 15.0702L22.1471 17.6156V23.0199V23.0235Z" fill="#3498db"/>
      <path d="M35.3691 15.8616V25.0498L35.3183 25.0786L35.3691 25.1074V30.885L30.2616 33.7782L27.2527 35.4817L26.0372 36.1703L22.7993 38.0036L22.147 37.6341L17.65 35.0869L20.8861 33.2536L22.147 32.5416L26.0372 30.3387L27.2527 29.6483L30.2616 27.9448V12.9738L35.0802 15.703L35.3691 15.867V15.8616Z" fill="#6c5ce7"/>
    </g>
  </g>
  
  <!-- Orbiting satellites -->
  <circle cx="350" cy="100" r="5" fill="#B1B1B1">
    <animateMotion path="M0 0 Q 50 -50 100 0 Q 50 50 0 0 Z" dur="20s" repeatCount="indefinite"/>
  </circle>
  
  <circle cx="150" cy="300" r="4" fill="#B1B1B1">
    <animateMotion path="M0 0 Q -40 40 -80 0 Q -40 -40 0 0 Z" dur="15s" repeatCount="indefinite"/>
  </circle>
  
  <!-- Stars in background -->
  <g opacity="0.8">
    <circle cx="50" cy="50" r="1" fill="white"/>
    <circle cx="100" cy="80" r="1.5" fill="white"/>
    <circle cx="150" cy="40" r="1" fill="white"/>
    <circle cx="200" cy="60" r="1.2" fill="white"/>
    <circle cx="300" cy="30" r="1" fill="white"/>
    <circle cx="350" cy="70" r="1.3" fill="white"/>
    <circle cx="400" cy="50" r="1" fill="white"/>
    <circle cx="450" cy="90" r="1.5" fill="white"/>
    
    <circle cx="50" cy="350" r="1" fill="white"/>
    <circle cx="100" cy="320" r="1.5" fill="white"/>
    <circle cx="150" cy="360" r="1" fill="white"/>
    <circle cx="200" cy="340" r="1.2" fill="white"/>
    <circle cx="300" cy="370" r="1" fill="white"/>
    <circle cx="350" cy="330" r="1.3" fill="white"/>
    <circle cx="400" cy="350" r="1" fill="white"/>
    <circle cx="450" cy="310" r="1.5" fill="white"/>
    
    <circle cx="30" cy="150" r="1" fill="white"/>
    <circle cx="70" cy="200" r="1.5" fill="white"/>
    <circle cx="20" cy="250" r="1" fill="white"/>
    <circle cx="60" cy="300" r="1.2" fill="white"/>
    <circle cx="40" cy="100" r="1" fill="white"/>
    
    <circle cx="470" cy="150" r="1" fill="white"/>
    <circle cx="430" cy="200" r="1.5" fill="white"/>
    <circle cx="480" cy="250" r="1" fill="white"/>
    <circle cx="440" cy="300" r="1.2" fill="white"/>
    <circle cx="460" cy="100" r="1" fill="white"/>
  </g>
  
  <!-- Glowing effects -->
  <defs>
    <filter id="filter0_d" x="0" y="0" width="500" height="400" filterUnits="userSpaceOnUse" color-interpolation-filters="sRGB">
      <feFlood flood-opacity="0" result="BackgroundImageFix"/>
      <feColorMatrix in="SourceAlpha" type="matrix" values="0 0 0 0 0 0 0 0 0 0 0 0 0 0 0 0 0 0 127 0"/>
      <feOffset/>
      <feGaussianBlur stdDeviation="10"/>
      <feColorMatrix type="matrix" values="0 0 0 0 0.42 0 0 0 0 0.36 0 0 0 0 0.90 0 0 0 0.5 0"/>
      <feBlend mode="normal" in2="BackgroundImageFix" result="effect1_dropShadow"/>
      <feBlend mode="normal" in="SourceGraphic" in2="effect1_dropShadow" result="shape"/>
    </filter>
  </defs>
</svg>
