<svg width="1440" height="800" viewBox="0 0 1440 800" fill="none" xmlns="http://www.w3.org/2000/svg">
  <!-- Background gradient -->
  <rect width="1440" height="800" fill="url(#paint0_linear)" />
  
  <!-- Horizontal grid lines -->
  <g opacity="0.2">
    <line x1="0" y1="50" x2="1440" y2="50" stroke="#3498db" stroke-width="1" />
    <line x1="0" y1="100" x2="1440" y2="100" stroke="#3498db" stroke-width="1" />
    <line x1="0" y1="150" x2="1440" y2="150" stroke="#3498db" stroke-width="1" />
    <line x1="0" y1="200" x2="1440" y2="200" stroke="#3498db" stroke-width="1" />
    <line x1="0" y1="250" x2="1440" y2="250" stroke="#3498db" stroke-width="1" />
    <line x1="0" y1="300" x2="1440" y2="300" stroke="#3498db" stroke-width="1" />
    <line x1="0" y1="350" x2="1440" y2="350" stroke="#3498db" stroke-width="1" />
    <line x1="0" y1="400" x2="1440" y2="400" stroke="#3498db" stroke-width="1" />
    <line x1="0" y1="450" x2="1440" y2="450" stroke="#3498db" stroke-width="1" />
    <line x1="0" y1="500" x2="1440" y2="500" stroke="#3498db" stroke-width="1" />
    <line x1="0" y1="550" x2="1440" y2="550" stroke="#3498db" stroke-width="1" />
    <line x1="0" y1="600" x2="1440" y2="600" stroke="#3498db" stroke-width="1" />
    <line x1="0" y1="650" x2="1440" y2="650" stroke="#3498db" stroke-width="1" />
    <line x1="0" y1="700" x2="1440" y2="700" stroke="#3498db" stroke-width="1" />
    <line x1="0" y1="750" x2="1440" y2="750" stroke="#3498db" stroke-width="1" />
  </g>
  
  <!-- Vertical grid lines -->
  <g opacity="0.2">
    <line x1="100" y1="0" x2="100" y2="800" stroke="#3498db" stroke-width="1" />
    <line x1="200" y1="0" x2="200" y2="800" stroke="#3498db" stroke-width="1" />
    <line x1="300" y1="0" x2="300" y2="800" stroke="#3498db" stroke-width="1" />
    <line x1="400" y1="0" x2="400" y2="800" stroke="#3498db" stroke-width="1" />
    <line x1="500" y1="0" x2="500" y2="800" stroke="#3498db" stroke-width="1" />
    <line x1="600" y1="0" x2="600" y2="800" stroke="#3498db" stroke-width="1" />
    <line x1="700" y1="0" x2="700" y2="800" stroke="#3498db" stroke-width="1" />
    <line x1="800" y1="0" x2="800" y2="800" stroke="#3498db" stroke-width="1" />
    <line x1="900" y1="0" x2="900" y2="800" stroke="#3498db" stroke-width="1" />
    <line x1="1000" y1="0" x2="1000" y2="800" stroke="#3498db" stroke-width="1" />
    <line x1="1100" y1="0" x2="1100" y2="800" stroke="#3498db" stroke-width="1" />
    <line x1="1200" y1="0" x2="1200" y2="800" stroke="#3498db" stroke-width="1" />
    <line x1="1300" y1="0" x2="1300" y2="800" stroke="#3498db" stroke-width="1" />
    <line x1="1400" y1="0" x2="1400" y2="800" stroke="#3498db" stroke-width="1" />
  </g>
  
  <!-- Glowing circles -->
  <circle cx="200" cy="200" r="5" fill="#6c5ce7" opacity="0.7">
    <animate attributeName="opacity" values="0.7;0.3;0.7" dur="3s" repeatCount="indefinite" />
  </circle>
  <circle cx="600" cy="300" r="5" fill="#6c5ce7" opacity="0.7">
    <animate attributeName="opacity" values="0.7;0.3;0.7" dur="4s" repeatCount="indefinite" />
  </circle>
  <circle cx="1000" cy="200" r="5" fill="#6c5ce7" opacity="0.7">
    <animate attributeName="opacity" values="0.7;0.3;0.7" dur="5s" repeatCount="indefinite" />
  </circle>
  <circle cx="400" cy="600" r="5" fill="#6c5ce7" opacity="0.7">
    <animate attributeName="opacity" values="0.7;0.3;0.7" dur="3.5s" repeatCount="indefinite" />
  </circle>
  <circle cx="800" cy="500" r="5" fill="#6c5ce7" opacity="0.7">
    <animate attributeName="opacity" values="0.7;0.3;0.7" dur="4.5s" repeatCount="indefinite" />
  </circle>
  <circle cx="1200" cy="600" r="5" fill="#6c5ce7" opacity="0.7">
    <animate attributeName="opacity" values="0.7;0.3;0.7" dur="3.2s" repeatCount="indefinite" />
  </circle>
  
  <!-- Nebula effects -->
  <circle cx="300" cy="400" r="100" fill="url(#paint1_radial)" opacity="0.2" />
  <circle cx="900" cy="300" r="150" fill="url(#paint2_radial)" opacity="0.15" />
  <circle cx="1100" cy="500" r="120" fill="url(#paint3_radial)" opacity="0.2" />
  
  <!-- Definitions -->
  <defs>
    <linearGradient id="paint0_linear" x1="0" y1="0" x2="1440" y2="800" gradientUnits="userSpaceOnUse">
      <stop offset="0" stop-color="#0F0A1E" />
      <stop offset="1" stop-color="#1A1035" />
    </linearGradient>
    
    <radialGradient id="paint1_radial" cx="0" cy="0" r="1" gradientUnits="userSpaceOnUse" gradientTransform="translate(300 400) rotate(90) scale(100)">
      <stop offset="0" stop-color="#6c5ce7" />
      <stop offset="1" stop-color="#6c5ce7" stop-opacity="0" />
    </radialGradient>
    
    <radialGradient id="paint2_radial" cx="0" cy="0" r="1" gradientUnits="userSpaceOnUse" gradientTransform="translate(900 300) rotate(90) scale(150)">
      <stop offset="0" stop-color="#3498db" />
      <stop offset="1" stop-color="#3498db" stop-opacity="0" />
    </radialGradient>
    
    <radialGradient id="paint3_radial" cx="0" cy="0" r="1" gradientUnits="userSpaceOnUse" gradientTransform="translate(1100 500) rotate(90) scale(120)">
      <stop offset="0" stop-color="#9575cd" />
      <stop offset="1" stop-color="#9575cd" stop-opacity="0" />
    </radialGradient>
  </defs>
</svg>
