<svg width="400" height="300" viewBox="0 0 400 300" fill="none" xmlns="http://www.w3.org/2000/svg">
  <!-- Background -->
  <rect width="400" height="300" fill="#12092B" />
  
  <!-- Grid lines -->
  <g opacity="0.2">
    <line x1="0" y1="50" x2="400" y2="50" stroke="#3498db" stroke-width="1" />
    <line x1="0" y1="100" x2="400" y2="100" stroke="#3498db" stroke-width="1" />
    <line x1="0" y1="150" x2="400" y2="150" stroke="#3498db" stroke-width="1" />
    <line x1="0" y1="200" x2="400" y2="200" stroke="#3498db" stroke-width="1" />
    <line x1="0" y1="250" x2="400" y2="250" stroke="#3498db" stroke-width="1" />
    
    <line x1="50" y1="0" x2="50" y2="300" stroke="#3498db" stroke-width="1" />
    <line x1="100" y1="0" x2="100" y2="300" stroke="#3498db" stroke-width="1" />
    <line x1="150" y1="0" x2="150" y2="300" stroke="#3498db" stroke-width="1" />
    <line x1="200" y1="0" x2="200" y2="300" stroke="#3498db" stroke-width="1" />
    <line x1="250" y1="0" x2="250" y2="300" stroke="#3498db" stroke-width="1" />
    <line x1="300" y1="0" x2="300" y2="300" stroke="#3498db" stroke-width="1" />
    <line x1="350" y1="0" x2="350" y2="300" stroke="#3498db" stroke-width="1" />
  </g>
  
  <!-- Bond certificate -->
  <g filter="url(#filter0_d)">
    <rect x="100" y="75" width="200" height="150" rx="5" fill="#2c3e50" stroke="#6c5ce7" stroke-width="2" />
    
    <!-- Certificate header -->
    <rect x="110" y="85" width="180" height="30" rx="3" fill="#4B0082" opacity="0.7" />
    <text x="200" y="105" font-family="Arial" font-size="14" fill="white" text-anchor="middle" dominant-baseline="middle">SOLANA TOKEN BOND</text>
    
    <!-- Certificate content -->
    <line x1="110" y1="125" x2="290" y2="125" stroke="#3498db" stroke-width="1" />
    
    <text x="120" y="145" font-family="Arial" font-size="10" fill="#B1B1B1">TOKEN:</text>
    <text x="170" y="145" font-family="Arial" font-size="10" fill="white">$ATH</text>
    
    <text x="120" y="165" font-family="Arial" font-size="10" fill="#B1B1B1">DISCOUNT:</text>
    <text x="170" y="165" font-family="Arial" font-size="10" fill="#87ceeb">15%</text>
    
    <text x="120" y="185" font-family="Arial" font-size="10" fill="#B1B1B1">VESTING:</text>
    <text x="170" y="185" font-family="Arial" font-size="10" fill="white">30 DAYS</text>
    
    <text x="120" y="205" font-family="Arial" font-size="10" fill="#B1B1B1">YIELD:</text>
    <text x="170" y="205" font-family="Arial" font-size="10" fill="#87ceeb">25% APY</text>
    
    <!-- Certificate seal -->
    <circle cx="250" cy="175" r="20" fill="none" stroke="#6c5ce7" stroke-width="2" />
    <path d="M240,175 L250,185 L260,175 L250,165 Z" fill="#6c5ce7" />
  </g>
  
  <!-- Floating tokens -->
  <g>
    <circle cx="50" cy="50" r="15" fill="#6c5ce7" opacity="0.7">
      <animate attributeName="cy" values="50;40;50;60;50" dur="4s" repeatCount="indefinite" />
    </circle>
    <text x="50" y="54" font-family="Arial" font-size="12" fill="white" text-anchor="middle">$</text>
  </g>
  
  <g>
    <circle cx="350" cy="250" r="15" fill="#3498db" opacity="0.7">
      <animate attributeName="cy" values="250;240;250;260;250" dur="3s" repeatCount="indefinite" />
    </circle>
    <text x="350" y="254" font-family="Arial" font-size="12" fill="white" text-anchor="middle">$</text>
  </g>
  
  <g>
    <circle cx="70" cy="200" r="10" fill="#9575cd" opacity="0.7">
      <animate attributeName="cy" values="200;195;200;205;200" dur="2s" repeatCount="indefinite" />
    </circle>
    <text x="70" y="204" font-family="Arial" font-size="10" fill="white" text-anchor="middle">$</text>
  </g>
  
  <g>
    <circle cx="330" cy="100" r="10" fill="#9575cd" opacity="0.7">
      <animate attributeName="cy" values="100;95;100;105;100" dur="2.5s" repeatCount="indefinite" />
    </circle>
    <text x="330" y="104" font-family="Arial" font-size="10" fill="white" text-anchor="middle">$</text>
  </g>
  
  <!-- Connecting lines -->
  <line x1="65" y1="65" x2="100" y2="100" stroke="#6c5ce7" stroke-width="1" opacity="0.5" />
  <line x1="80" y1="200" x2="100" y2="180" stroke="#9575cd" stroke-width="1" opacity="0.5" />
  <line x1="335" y1="110" x2="300" y2="130" stroke="#9575cd" stroke-width="1" opacity="0.5" />
  <line x1="335" y1="240" x2="300" y2="200" stroke="#3498db" stroke-width="1" opacity="0.5" />
  
  <!-- Glow effects -->
  <defs>
    <filter id="filter0_d" x="95" y="70" width="210" height="160" filterUnits="userSpaceOnUse" color-interpolation-filters="sRGB">
      <feFlood flood-opacity="0" result="BackgroundImageFix"/>
      <feColorMatrix in="SourceAlpha" type="matrix" values="0 0 0 0 0 0 0 0 0 0 0 0 0 0 0 0 0 0 127 0"/>
      <feOffset/>
      <feGaussianBlur stdDeviation="2"/>
      <feColorMatrix type="matrix" values="0 0 0 0 0.42 0 0 0 0 0.36 0 0 0 0 0.90 0 0 0 0.5 0"/>
      <feBlend mode="normal" in2="BackgroundImageFix" result="effect1_dropShadow"/>
      <feBlend mode="normal" in="SourceGraphic" in2="effect1_dropShadow" result="shape"/>
    </filter>
  </defs>
</svg>
