<svg width="60" height="60" viewBox="0 0 60 60" fill="none" xmlns="http://www.w3.org/2000/svg">
<rect width="60" height="60" rx="30" fill="#17043B"/>
<path d="M26.5 18.625H20.6667C19.5467 18.625 18.625 19.5467 18.625 20.6667V26.5C18.625 27.62 19.5467 28.5417 20.6667 28.5417H26.5C27.62 28.5417 28.5417 27.62 28.5417 26.5V20.6667C28.5417 19.5467 27.62 18.625 26.5 18.625ZM26.7917 26.5C26.7917 26.6633 26.6633 26.7917 26.5 26.7917H20.6667C20.5033 26.7917 20.375 26.6633 20.375 26.5V20.6667C20.375 20.5033 20.5033 20.375 20.6667 20.375H26.5C26.6633 20.375 26.7917 20.5033 26.7917 20.6667V26.5Z" fill="white"/>
<path d="M24.1667 22.125H23C22.5168 22.125 22.125 22.5168 22.125 23V24.1667C22.125 24.6499 22.5168 25.0417 23 25.0417H24.1667C24.6499 25.0417 25.0417 24.6499 25.0417 24.1667V23C25.0417 22.5168 24.6499 22.125 24.1667 22.125Z" fill="white"/>
<path d="M26.5 30.2915H20.6667C19.5467 30.2915 18.625 31.2132 18.625 32.3332V38.1665C18.625 39.2865 19.5467 40.2082 20.6667 40.2082H26.5C27.62 40.2082 28.5417 39.2865 28.5417 38.1665V32.3332C28.5417 31.2132 27.62 30.2915 26.5 30.2915ZM26.7917 38.1665C26.7917 38.3298 26.6633 38.4582 26.5 38.4582H20.6667C20.5033 38.4582 20.375 38.3298 20.375 38.1665V32.3332C20.375 32.1698 20.5033 32.0415 20.6667 32.0415H26.5C26.6633 32.0415 26.7917 32.1698 26.7917 32.3332V38.1665Z" fill="white"/>
<path d="M24.1667 33.7915H23C22.5168 33.7915 22.125 34.1833 22.125 34.6665V35.8332C22.125 36.3164 22.5168 36.7082 23 36.7082H24.1667C24.6499 36.7082 25.0417 36.3164 25.0417 35.8332V34.6665C25.0417 34.1833 24.6499 33.7915 24.1667 33.7915Z" fill="white"/>
<path d="M38.1666 18.625H32.3333C31.2133 18.625 30.2916 19.5467 30.2916 20.6667V26.5C30.2916 27.62 31.2133 28.5417 32.3333 28.5417H38.1666C39.2866 28.5417 40.2083 27.62 40.2083 26.5V20.6667C40.2083 19.5467 39.2866 18.625 38.1666 18.625ZM38.4583 26.5C38.4583 26.6633 38.33 26.7917 38.1666 26.7917H32.3333C32.17 26.7917 32.0416 26.6633 32.0416 26.5V20.6667C32.0416 20.5033 32.17 20.375 32.3333 20.375H38.1666C38.33 20.375 38.4583 20.5033 38.4583 20.6667V26.5Z" fill="white"/>
<path d="M35.8333 22.125H34.6666C34.1834 22.125 33.7916 22.5168 33.7916 23V24.1667C33.7916 24.6499 34.1834 25.0417 34.6666 25.0417H35.8333C36.3165 25.0417 36.7083 24.6499 36.7083 24.1667V23C36.7083 22.5168 36.3165 22.125 35.8333 22.125Z" fill="white"/>
<path d="M39.3333 36.125C38.855 36.125 38.4583 36.5217 38.4583 37V38.1667C38.4583 38.33 38.33 38.4583 38.1667 38.4583H37C36.5217 38.4583 36.125 38.855 36.125 39.3333C36.125 39.8117 36.5217 40.2083 37 40.2083H38.1667C39.2867 40.2083 40.2083 39.2867 40.2083 38.1667V37C40.2083 36.5217 39.8117 36.125 39.3333 36.125Z" fill="white"/>
<path d="M34.6666 33.7915H32.0416V31.1665C32.0416 30.6882 31.645 30.2915 31.1666 30.2915C30.6883 30.2915 30.2916 30.6882 30.2916 31.1665V38.1665C30.2916 39.2865 31.2133 40.2082 32.3333 40.2082H33.5C33.9783 40.2082 34.375 39.8115 34.375 39.3332C34.375 38.8548 33.9783 38.4582 33.5 38.4582H32.3333C32.17 38.4582 32.0416 38.3298 32.0416 38.1665V35.5415H34.6666C35.145 35.5415 35.5416 35.1448 35.5416 34.6665C35.5416 34.1882 35.145 33.7915 34.6666 33.7915Z" fill="white"/>
<path d="M39.3333 30.2915H34.6666C34.1883 30.2915 33.7916 30.6882 33.7916 31.1665C33.7916 31.6448 34.1883 32.0415 34.6666 32.0415H39.3333C39.8116 32.0415 40.2083 31.6448 40.2083 31.1665C40.2083 30.6882 39.8116 30.2915 39.3333 30.2915Z" fill="white"/>
<path d="M39.0649 34.6665C39.0649 34.1882 38.6683 33.7915 38.1899 33.7915H38.1783C37.6999 33.7915 37.3149 34.1882 37.3149 34.6665C37.3149 35.1448 37.7116 35.5415 38.1899 35.5415C38.6683 35.5415 39.0649 35.1448 39.0649 34.6665Z" fill="white"/>
</svg>
