<svg width="90" height="90" viewBox="0 0 90 90" fill="none" xmlns="http://www.w3.org/2000/svg">
<rect x="0.5" y="0.5" width="89" height="89" rx="44.5" fill="#1A073E"/>
<path d="M45.5 64.4C45.1667 64.4 44.8333 64.3586 44.5 64.276C44.1667 64.1933 43.85 64.068 43.55 63.9L29.55 56.15C28.9167 55.7833 28.4167 55.292 28.05 54.676C27.6833 54.06 27.5 53.384 27.5 52.648V37.348C27.5 36.6146 27.6833 35.94 28.05 35.324C28.4167 34.708 28.9167 34.216 29.55 33.848L43.55 26.098C43.85 25.9313 44.1667 25.8066 44.5 25.724C44.8333 25.6413 45.1667 25.6 45.5 25.6C45.8333 25.6 46.1667 25.642 46.5 25.726C46.8333 25.81 47.15 25.9346 47.45 26.1L61.45 33.85C62.0833 34.2166 62.5833 34.7086 62.95 35.326C63.3167 35.9433 63.5 36.618 63.5 37.35V52.65C63.5 53.3833 63.3167 54.0586 62.95 54.676C62.5833 55.2933 62.0833 55.7846 61.45 56.15L47.45 63.9C47.15 64.0666 46.8333 64.192 46.5 64.276C46.1667 64.36 45.8333 64.4013 45.5 64.4ZM39.7 39.5C40.4333 38.7333 41.292 38.1246 42.276 37.674C43.26 37.2233 44.3347 36.9986 45.5 37C46.6653 37.0013 47.7407 37.2266 48.726 37.676C49.7113 38.1253 50.5693 38.7333 51.3 39.5L57.3 36.15L45.5 29.6L33.7 36.15L39.7 39.5ZM43.5 59.3V52.75C41.7667 52.2833 40.3333 51.342 39.2 49.926C38.0667 48.51 37.5 46.868 37.5 45C37.5 44.6333 37.5167 44.2833 37.55 43.95C37.5833 43.6166 37.65 43.3 37.75 43L31.5 39.5V52.65L43.5 59.3ZM45.5 49C46.6 49 47.542 48.608 48.326 47.824C49.11 47.04 49.5013 46.0986 49.5 45C49.4987 43.9013 49.1073 42.96 48.326 42.176C47.5447 41.392 46.6027 41 45.5 41C44.3973 41 43.456 41.392 42.676 42.176C41.896 42.96 41.504 43.9013 41.5 45C41.496 46.0986 41.888 47.0406 42.676 47.826C43.464 48.6113 44.4053 49.0026 45.5 49ZM47.5 59.3L59.5 52.65V39.5L53.25 43C53.35 43.3333 53.4167 43.6586 53.45 43.976C53.4833 44.2933 53.5 44.6346 53.5 45C53.5 46.8666 52.9333 48.5086 51.8 49.926C50.6667 51.3433 49.2333 52.2846 47.5 52.75V59.3Z" fill="#CECBCB"/>
</svg>
