<svg width="134" height="40" viewBox="0 0 134 40" fill="none" xmlns="http://www.w3.org/2000/svg">
<path d="M18.4998 1.66669C8.37458 1.66669 0.166504 9.8748 0.166504 20C0.166504 30.1252 8.37458 38.3334 18.4998 38.3334C27.584 38.3334 35.125 31.7264 36.5797 23.0556H36.4481C35.0913 28.3271 30.306 32.2222 24.6109 32.2222C17.8608 32.2222 12.3887 26.7502 12.3887 20C12.3887 13.2499 17.8608 7.7778 24.6109 7.7778C30.306 7.7778 35.0913 11.6729 36.4481 16.9445H36.5797C35.125 8.27367 27.584 1.66669 18.4998 1.66669Z" fill="#A4BCFD"/>
<path d="M0.166504 20C0.166504 9.8748 8.37461 1.66669 18.4998 1.66669C27.584 1.66669 35.125 8.27367 36.5797 16.9445H24.2259C22.8691 11.6729 18.0838 7.7778 12.3887 7.7778C5.63858 7.7778 0.166504 13.2499 0.166504 20Z" fill="#3538CD"/>
<path d="M0.166504 20C0.166504 30.1253 8.37461 38.3334 18.4998 38.3334C27.584 38.3334 35.125 31.7264 36.5797 23.0556H24.2259C22.8691 28.3271 18.0838 32.2223 12.3887 32.2223C5.63858 32.2223 0.166504 26.7502 0.166504 20Z" fill="#3538CD"/>
<path d="M63.0324 17.0893C62.5104 13.3192 59.6103 11.1317 55.8484 11.1317C51.4154 11.1317 48.0762 14.3632 48.0762 19.8485C48.0762 25.3255 51.374 28.5654 55.8484 28.5654C59.8837 28.5654 62.5601 25.9553 63.0324 22.7155L59.9334 22.6989C59.544 24.6875 57.9199 25.8061 55.8899 25.8061C53.1389 25.8061 51.1668 23.7429 51.1668 19.8485C51.1668 16.0204 53.1223 13.8909 55.8981 13.8909C57.9614 13.8909 59.5771 15.0592 59.9334 17.0893H63.0324Z" fill="white"/>
<path d="M69.3774 28.5902C71.3743 28.5902 72.5675 27.6539 73.1143 26.585H73.2138V28.3334H76.0973V19.8154C76.0973 16.4513 73.3546 15.4404 70.9268 15.4404C68.2505 15.4404 66.1955 16.6335 65.5327 18.9536L68.3333 19.3514C68.6316 18.4813 69.4768 17.7356 70.9434 17.7356C72.3355 17.7356 73.0978 18.4482 73.0978 19.6994V19.7491C73.0978 20.6108 72.1946 20.6523 69.9491 20.8925C67.4799 21.1577 65.1184 21.8951 65.1184 24.7621C65.1184 27.2645 66.9496 28.5902 69.3774 28.5902ZM70.1562 26.3862C68.9051 26.3862 68.0102 25.8144 68.0102 24.7124C68.0102 23.5606 69.0128 23.08 70.3551 22.8895C71.1423 22.7817 72.7166 22.5829 73.1061 22.268V23.7678C73.1061 25.1847 71.9626 26.3862 70.1562 26.3862Z" fill="white"/>
<path d="M85.4687 15.6061H82.9581V12.5568H79.9586V15.6061H78.1522V17.9262H79.9586V25.0024C79.942 27.397 81.682 28.5737 83.9358 28.5074C84.7893 28.4825 85.3776 28.3168 85.7007 28.2091L85.1953 25.8641C85.0296 25.9056 84.6899 25.9801 84.317 25.9801C83.563 25.9801 82.9581 25.715 82.9581 24.5052V17.9262H85.4687V15.6061Z" fill="white"/>
<path d="M91.6397 28.5902C93.6367 28.5902 94.8298 27.6539 95.3767 26.585H95.4761V28.3334H98.3597V19.8154C98.3597 16.4513 95.617 15.4404 93.1892 15.4404C90.5128 15.4404 88.4579 16.6335 87.795 18.9536L90.5957 19.3514C90.894 18.4813 91.7392 17.7356 93.2058 17.7356C94.5978 17.7356 95.3601 18.4482 95.3601 19.6994V19.7491C95.3601 20.6108 94.457 20.6523 92.2115 20.8925C89.7422 21.1577 87.3807 21.8951 87.3807 24.7621C87.3807 27.2645 89.2119 28.5902 91.6397 28.5902ZM92.4186 26.3862C91.1674 26.3862 90.2725 25.8144 90.2725 24.7124C90.2725 23.5606 91.2751 23.08 92.6175 22.8895C93.4046 22.7817 94.979 22.5829 95.3684 22.268V23.7678C95.3684 25.1847 94.225 26.3862 92.4186 26.3862Z" fill="white"/>
<path d="M104.375 11.3637H101.376V28.3334H104.375V11.3637Z" fill="white"/>
<path d="M113.011 28.5819C116.74 28.5819 119.11 25.9553 119.11 22.0194C119.11 18.0753 116.74 15.4404 113.011 15.4404C109.283 15.4404 106.913 18.0753 106.913 22.0194C106.913 25.9553 109.283 28.5819 113.011 28.5819ZM113.028 26.179C110.965 26.179 109.954 24.3395 109.954 22.0112C109.954 19.6828 110.965 17.8184 113.028 17.8184C115.058 17.8184 116.069 19.6828 116.069 22.0112C116.069 24.3395 115.058 26.179 113.028 26.179Z" fill="white"/>
<path d="M127.191 33.3712C130.629 33.3712 133.165 31.7969 133.165 28.5405V15.6061H130.207V17.7107H130.041C129.585 16.791 128.632 15.4404 126.387 15.4404C123.445 15.4404 121.134 17.7439 121.134 21.9283C121.134 26.0796 123.445 28.1511 126.379 28.1511C128.558 28.1511 129.577 26.9827 130.041 26.0464H130.19V28.4576C130.19 30.3303 128.947 31.1009 127.24 31.1009C125.434 31.1009 124.639 30.2474 124.274 29.5017L121.573 30.1563C122.12 31.9378 123.951 33.3712 127.191 33.3712ZM127.216 25.7978C125.235 25.7978 124.191 24.2567 124.191 21.9117C124.191 19.5999 125.219 17.9013 127.216 17.9013C129.146 17.9013 130.207 19.5005 130.207 21.9117C130.207 24.3395 129.13 25.7978 127.216 25.7978Z" fill="white"/>
</svg>
