<svg width="49" height="49" viewBox="0 0 49 49" fill="none" xmlns="http://www.w3.org/2000/svg">
<path d="M0 24.5C0 10.9683 10.9683 0 24.5 0C38.0317 0 49 10.9683 49 24.5C49 38.0317 38.0317 49 24.5 49C10.9683 49 0 38.0317 0 24.5Z" fill="#F3BA2F"/>
<path d="M28.4139 35.6261V39.4083L25.1064 41.3438L21.8984 39.4083V35.6261L25.1064 37.5616L28.4139 35.6261ZM10.7188 22.5553L13.9267 24.4923V30.9772L19.4698 34.2694V38.0439L10.7188 32.9158V22.5553ZM39.4971 22.5553V32.9127L30.6495 38.0439V34.2694L36.1896 30.9772V24.4923L39.4971 22.5553ZM30.6495 17.4256L33.9539 19.3627V23.1387L28.4139 26.4294V33.0061L25.2044 34.9431L21.9964 33.0076V26.4294L16.2619 23.1403V19.3642L19.5663 17.4287L25.1064 20.7193L30.6495 17.4256ZM16.2619 25.8475L19.4683 27.783V31.5575L16.2603 29.622L16.2619 25.8475ZM33.9539 25.8475V29.622L30.7475 31.5591V27.7845L33.9555 25.849L33.9539 25.8475ZM13.9252 14.1426L17.2373 16.072L13.9313 18.009V21.7836L10.7233 19.8481V16.0735L13.9267 14.1426H13.9252ZM36.2876 14.1426L39.5951 16.0781V19.8527L36.2876 21.7882V18.0075L33.0719 16.072L36.2876 14.1411V14.1426ZM25.1064 14.1426L28.4139 16.0781L25.1064 18.0136L21.8984 16.0781L25.1064 14.1426ZM25.1064 7.65625L33.9539 12.7859L30.746 14.723L25.2028 11.4308L19.5602 14.723L16.3522 12.7875L25.1064 7.65625Z" fill="white"/>
</svg>
