<svg width="184" height="48" viewBox="0 0 184 48" fill="none" xmlns="http://www.w3.org/2000/svg">
<path d="M15.8806 33.4286C24.5594 33.4286 31.5949 26.393 31.5949 17.7143C31.5949 16.7307 31.5046 15.7682 31.3317 14.8347C30.3981 14.6618 29.4357 14.5714 28.4521 14.5714C19.7733 14.5714 12.7378 21.6069 12.7378 30.2857C12.7378 31.2693 12.8282 32.2318 13.001 33.1653C13.9346 33.3382 14.8971 33.4286 15.8806 33.4286Z" fill="#175CD3"/>
<path fill-rule="evenodd" clip-rule="evenodd" d="M13.0012 33.1653C5.69768 31.8127 0.166504 25.4095 0.166504 17.7143C0.166504 9.03553 7.20203 2 15.8808 2C23.576 2 29.9793 7.53118 31.3318 14.8347C30.3983 14.6618 29.4358 14.5714 28.4522 14.5714C19.7735 14.5714 12.7379 21.607 12.7379 30.2857C12.7379 31.2693 12.8283 32.2318 13.0012 33.1653Z" fill="#1570EF"/>
<path fill-rule="evenodd" clip-rule="evenodd" d="M15.8806 33.4285C24.5593 33.4285 31.5949 26.393 31.5949 17.7142C31.5949 16.7306 31.5045 15.7681 31.3316 14.8346C38.6351 16.1872 44.1663 22.5905 44.1663 30.2856C44.1663 38.9644 37.1308 45.9999 28.452 45.9999C20.7568 45.9999 14.3535 40.4687 13.001 33.1652C13.9345 33.3381 14.897 33.4285 15.8806 33.4285Z" fill="#2E90FA"/>
<path d="M74.3944 28.904C73.8344 30.7146 72.8544 32.068 71.4544 32.964C70.0544 33.8413 68.4211 34.28 66.5544 34.28C64.7251 34.28 63.1384 33.8973 61.7944 33.132C60.4691 32.3666 59.4424 31.2746 58.7144 29.856C58.0051 28.4373 57.6504 26.7386 57.6504 24.76C57.6504 22.7813 58.0144 21.0826 58.7424 19.664C59.4704 18.2453 60.4971 17.1533 61.8224 16.388C63.1477 15.6226 64.7064 15.24 66.4984 15.24C68.3837 15.24 69.9984 15.6413 71.3424 16.444C72.7051 17.228 73.6384 18.4226 74.1424 20.028L70.6424 21.512C70.3251 20.392 69.8397 19.5986 69.1864 19.132C68.5331 18.6466 67.6931 18.404 66.6664 18.404C65.1357 18.404 63.9131 18.9546 62.9984 20.056C62.1024 21.1386 61.6544 22.7066 61.6544 24.76C61.6544 26.7946 62.0837 28.3626 62.9424 29.464C63.8011 30.5653 65.0424 31.116 66.6664 31.116C67.6744 31.116 68.5424 30.8453 69.2704 30.304C70.0171 29.7627 70.5397 28.9413 70.8384 27.84L74.3944 28.904Z" fill="white"/>
<path d="M79.2277 17.984C77.641 17.984 76.8477 17.3026 76.8477 15.94C76.8477 14.5586 77.641 13.868 79.2277 13.868C80.8143 13.868 81.6077 14.5586 81.6077 15.94C81.6077 17.3026 80.8143 17.984 79.2277 17.984ZM81.1317 20V34H77.2957V20H81.1317Z" fill="white"/>
<path d="M85.198 34V20H88.53L88.782 22.744C89.1367 21.792 89.6687 21.0546 90.378 20.532C91.106 19.9906 92.0207 19.72 93.122 19.72C93.7753 19.72 94.2793 19.8226 94.634 20.028L94.186 23.248C93.9993 23.192 93.766 23.1453 93.486 23.108C93.2247 23.052 92.8793 23.024 92.45 23.024C91.8713 23.024 91.3207 23.164 90.798 23.444C90.294 23.7053 89.874 24.116 89.538 24.676C89.202 25.2173 89.034 25.908 89.034 26.748V34H85.198Z" fill="white"/>
<path d="M103.093 19.72C104.96 19.72 106.406 20.1213 107.433 20.924C108.478 21.7266 109.169 22.6973 109.505 23.836L105.921 25.124C105.548 23.4253 104.624 22.576 103.149 22.576C102.085 22.576 101.254 22.9493 100.657 23.696C100.078 24.4426 99.7891 25.5533 99.7891 27.028C99.7891 28.5213 100.088 29.632 100.685 30.36C101.301 31.0693 102.132 31.424 103.177 31.424C104.801 31.424 105.772 30.5933 106.089 28.932L109.561 30.052C109.244 31.3027 108.534 32.32 107.433 33.104C106.35 33.888 104.941 34.28 103.205 34.28C101.749 34.28 100.47 33.9907 99.3691 33.412C98.2864 32.8333 97.4464 32.0026 96.8491 30.92C96.2517 29.8373 95.9531 28.5306 95.9531 27C95.9531 25.4693 96.2517 24.1626 96.8491 23.08C97.4651 21.9973 98.3051 21.1666 99.3691 20.588C100.452 20.0093 101.693 19.72 103.093 19.72Z" fill="white"/>
<path d="M118.926 19.72C120.326 19.72 121.567 20.0093 122.65 20.588C123.732 21.1666 124.572 21.9973 125.17 23.08C125.786 24.1626 126.094 25.4693 126.094 27C126.094 28.5306 125.786 29.8373 125.17 30.92C124.572 32.0026 123.732 32.8333 122.65 33.412C121.567 33.9907 120.326 34.28 118.926 34.28C117.507 34.28 116.256 33.9907 115.174 33.412C114.11 32.8333 113.27 32.0026 112.654 30.92C112.056 29.8373 111.758 28.5306 111.758 27C111.758 25.4693 112.056 24.1626 112.654 23.08C113.27 21.9973 114.11 21.1666 115.174 20.588C116.256 20.0093 117.507 19.72 118.926 19.72ZM118.926 22.576C117.88 22.576 117.059 22.9493 116.462 23.696C115.883 24.424 115.594 25.5253 115.594 27C115.594 28.4746 115.883 29.5853 116.462 30.332C117.059 31.06 117.88 31.424 118.926 31.424C119.952 31.424 120.755 31.06 121.334 30.332C121.931 29.5853 122.23 28.4746 122.23 27C122.23 25.5253 121.931 24.424 121.334 23.696C120.755 22.9493 119.952 22.576 118.926 22.576Z" fill="white"/>
<path d="M135.687 19.72C137.087 19.72 138.329 20.0093 139.411 20.588C140.494 21.1666 141.334 21.9973 141.931 23.08C142.547 24.1626 142.855 25.4693 142.855 27C142.855 28.5306 142.547 29.8373 141.931 30.92C141.334 32.0026 140.494 32.8333 139.411 33.412C138.329 33.9907 137.087 34.28 135.687 34.28C134.269 34.28 133.018 33.9907 131.935 33.412C130.871 32.8333 130.031 32.0026 129.415 30.92C128.818 29.8373 128.519 28.5306 128.519 27C128.519 25.4693 128.818 24.1626 129.415 23.08C130.031 21.9973 130.871 21.1666 131.935 20.588C133.018 20.0093 134.269 19.72 135.687 19.72ZM135.687 22.576C134.642 22.576 133.821 22.9493 133.223 23.696C132.645 24.424 132.355 25.5253 132.355 27C132.355 28.4746 132.645 29.5853 133.223 30.332C133.821 31.06 134.642 31.424 135.687 31.424C136.714 31.424 137.517 31.06 138.095 30.332C138.693 29.5853 138.991 28.4746 138.991 27C138.991 25.5253 138.693 24.424 138.095 23.696C137.517 22.9493 136.714 22.576 135.687 22.576Z" fill="white"/>
<path d="M149.845 13.868V29.688C149.845 30.3413 149.957 30.7986 150.181 31.06C150.405 31.3213 150.779 31.452 151.301 31.452C151.619 31.452 151.88 31.4333 152.085 31.396C152.291 31.3587 152.552 31.284 152.869 31.172L152.533 33.692C152.216 33.8786 151.815 34.0186 151.329 34.112C150.863 34.224 150.396 34.28 149.929 34.28C148.567 34.28 147.568 33.9533 146.933 33.3C146.317 32.628 146.009 31.564 146.009 30.108V13.868H149.845Z" fill="white"/>
<path d="M161.503 34.28C159.3 34.28 157.536 33.6453 156.211 32.376C154.885 31.088 154.223 29.296 154.223 27C154.223 25.4693 154.521 24.1626 155.119 23.08C155.716 21.9973 156.547 21.1666 157.611 20.588C158.693 20.0093 159.925 19.72 161.307 19.72C162.725 19.72 163.929 20.0093 164.919 20.588C165.908 21.148 166.664 21.9226 167.187 22.912C167.709 23.8826 167.971 24.9933 167.971 26.244C167.971 26.6173 167.961 26.972 167.943 27.308C167.924 27.644 167.896 27.9426 167.859 28.204H157.975C158.124 29.2866 158.497 30.0986 159.095 30.64C159.711 31.1626 160.504 31.424 161.475 31.424C162.296 31.424 162.959 31.2653 163.463 30.948C163.967 30.6306 164.359 30.192 164.639 29.632L167.691 30.808C167.243 31.9093 166.459 32.768 165.339 33.384C164.219 33.9813 162.94 34.28 161.503 34.28ZM161.279 22.548C159.468 22.548 158.376 23.5466 158.003 25.544H164.303C164.191 24.5733 163.873 23.836 163.351 23.332C162.847 22.8093 162.156 22.548 161.279 22.548Z" fill="white"/>
<path d="M176.821 34.28C175.403 34.28 174.105 34.028 172.929 33.524C171.772 33.02 170.829 32.3106 170.101 31.396L172.313 29.156C172.761 29.828 173.359 30.3787 174.105 30.808C174.852 31.2373 175.739 31.452 176.765 31.452C177.493 31.452 178.072 31.3493 178.501 31.144C178.949 30.92 179.173 30.5746 179.173 30.108C179.173 29.8093 179.071 29.5573 178.865 29.352C178.66 29.128 178.249 28.9506 177.633 28.82L175.169 28.316C173.545 27.98 172.388 27.476 171.697 26.804C171.025 26.1133 170.689 25.2266 170.689 24.144C170.689 23.3786 170.913 22.66 171.361 21.988C171.828 21.316 172.519 20.7746 173.433 20.364C174.348 19.9346 175.487 19.72 176.849 19.72C179.687 19.72 181.721 20.588 182.953 22.324L180.657 24.564C180.247 23.9106 179.705 23.416 179.033 23.08C178.38 22.7253 177.689 22.548 176.961 22.548C175.319 22.548 174.497 23.0053 174.497 23.92C174.497 24.2186 174.628 24.48 174.889 24.704C175.151 24.9093 175.627 25.0866 176.317 25.236L179.173 25.824C180.555 26.104 181.544 26.58 182.141 27.252C182.739 27.9053 183.037 28.6986 183.037 29.632C183.037 30.976 182.496 32.0867 181.413 32.964C180.349 33.8413 178.819 34.28 176.821 34.28Z" fill="white"/>
</svg>
