<svg width="80" height="19" viewBox="0 0 80 19" fill="none" xmlns="http://www.w3.org/2000/svg">
<path d="M8.20925 17.1051L6.06355 18.3413L5.8134 18.4853L4.30237 17.6149L3.68799 17.2611L2.37556 16.505L0 15.1367V8.00035L0.100566 7.94238L2.37556 6.63208V13.7454L3.68799 14.5016L4.30237 14.8554L6.06355 15.869L6.69737 16.2347L8.20925 17.1051Z" fill="#5325A9"/>
<path d="M12.0048 2.69609L10.6079 1.89217L8.21291 0.513672L5.81707 1.89217L4.41759 2.69864L3.68743 3.11808L2.375 3.87425V6.63296L3.68743 5.87764L4.41675 5.45821L6.06299 4.50937L6.81259 4.07715L8.21291 3.27153L9.60901 4.07544L10.3011 4.47356V6.08565L8.20953 4.88191L6.06384 6.11719L5.81284 6.26212L3.68828 7.48547V12.7684L5.80777 13.9892L6.06384 14.1367L8.20362 15.3686L10.3011 14.1614L10.5986 13.9901L12.6759 12.794V5.84183L14.0753 6.64745V3.88874L12.0048 2.69609ZM10.3011 11.4019L8.20362 12.609L6.06384 11.3763V8.87675L8.20953 7.64062L10.3011 8.84436V11.4002V11.4019Z" fill="#5325A9"/>
<path d="M16.4503 8.01488V12.3601L16.4267 12.3737L16.4503 12.3874V15.1197L14.0748 16.4879L12.6753 17.2936L12.1099 17.6192L10.604 18.4862L10.3006 18.3115L8.20898 17.1069L9.7141 16.2399L10.3006 15.9031L12.1099 14.8614L12.6753 14.5349L14.0748 13.7292V6.64917L16.316 7.93986L16.4503 8.01744V8.01488Z" fill="#5325A9"/>
<path d="M28.4363 2.05688V7.90678H27.8152L27.7645 7.81471C27.62 7.54873 27.4053 7.28871 27.1256 7.04063C26.8467 6.79341 26.485 6.58625 26.049 6.42257C25.612 6.26059 25.0594 6.17705 24.4069 6.17705C23.5678 6.17705 22.7852 6.38506 22.0829 6.79426C21.3807 7.20261 20.8128 7.80448 20.3944 8.58197C19.9727 9.36286 19.7598 10.3108 19.7598 11.4003V11.72C19.7598 12.8232 19.9761 13.7737 20.4029 14.5469C20.8297 15.3185 21.4018 15.9178 22.1041 16.3261C22.8072 16.7353 23.5813 16.9433 24.4069 16.9433C25.3813 16.9433 26.1352 16.7669 26.6456 16.4191C27.1636 16.0653 27.5558 15.668 27.8093 15.2375L27.8608 15.1505H28.4778V16.645H30.2609V2.05688H28.4363ZM28.4575 11.6552C28.4575 12.8385 28.1304 13.7643 27.4839 14.408C26.8391 15.0516 26.0101 15.3773 25.0205 15.3773C24.0309 15.3773 23.223 15.0516 22.5782 14.408C21.9333 13.7643 21.6055 12.8377 21.6055 11.6552V11.4626C21.6055 10.2946 21.9325 9.3748 22.5782 8.73115C23.2238 8.08751 24.0461 7.76185 25.0205 7.76185C25.9949 7.76185 26.8569 8.08751 27.4958 8.73201C28.1338 9.37565 28.4575 10.2955 28.4575 11.4626V11.6552Z" fill="#FAFAFA"/>
<path d="M41.4069 11.3345C41.4069 10.3022 41.1998 9.38912 40.7925 8.62272C40.3868 7.85802 39.8147 7.25359 39.0922 6.82393C38.3679 6.39427 37.5118 6.17603 36.5467 6.17603C35.5816 6.17603 34.6672 6.39427 33.9151 6.82564C33.1647 7.25445 32.5714 7.87081 32.1522 8.65426C31.7314 9.44198 31.5176 10.3806 31.5176 11.4402V11.696C31.5176 12.7429 31.7339 13.673 32.1615 14.4607C32.5883 15.2458 33.1883 15.8605 33.9455 16.291C34.7044 16.7224 35.6078 16.9406 36.6312 16.9406C37.5448 16.9406 38.3011 16.7957 38.8809 16.5101C39.4632 16.2237 39.9389 15.8648 40.2947 15.4445C40.6091 15.0736 40.8609 14.7156 41.046 14.3771L39.5654 13.6039C39.3364 14.0412 39.0262 14.436 38.6417 14.777C38.1947 15.1751 37.5313 15.3771 36.6727 15.3771C35.7557 15.3771 34.9774 15.0856 34.3613 14.5076C33.7427 13.9279 33.4131 13.1436 33.3844 12.1717L33.3793 11.9876H41.4052V11.3337L41.4069 11.3345ZM33.3802 10.6602L33.4097 10.4565C33.5281 9.6193 33.8653 8.95349 34.4103 8.47779C34.9563 8.00295 35.6678 7.76254 36.5265 7.76254C37.3851 7.76254 38.0941 8.00295 38.6333 8.47864C39.175 8.9569 39.4801 9.62612 39.5392 10.4684L39.5536 10.6602H33.3802Z" fill="#FAFAFA"/>
<path d="M47.0785 6.43347C46.5622 6.43347 46.1236 6.5298 45.7779 6.72076C45.439 6.90746 45.199 7.19561 45.0444 7.5997L45.0004 7.71308H44.3632V6.47524H42.5801V16.6422H44.4055V10.6295C44.4055 9.76762 44.6539 9.1146 45.1441 8.69005C45.6266 8.27147 46.2495 8.0592 46.9957 8.0592H48.1509V6.43262H47.0794L47.0785 6.43347Z" fill="#FAFAFA"/>
<path d="M58.0791 8.25119C57.7436 7.63654 57.2788 7.15317 56.6966 6.81557C56.1126 6.47713 55.434 6.30492 54.6793 6.30492C54.0413 6.30492 53.5105 6.38335 53.1015 6.53936C52.6959 6.69367 52.368 6.8923 52.1263 7.13015C51.8795 7.37226 51.6877 7.6229 51.5558 7.87524L51.506 7.97072H50.8831V2.05688H49.0586V16.6433H50.8831V11.5061C50.8831 10.3262 51.1722 9.40975 51.7443 8.77975C52.3207 8.14719 53.0939 7.82579 54.0446 7.82579C54.8779 7.82579 55.5464 8.06109 56.0298 8.52655C56.5157 8.99373 56.7616 9.71665 56.7616 10.6732V16.6424H58.5862V10.5018C58.5862 9.62629 58.4155 8.86926 58.0791 8.25034V8.25119Z" fill="#FAFAFA"/>
<path d="M69.7411 11.3345C69.7411 10.3022 69.5349 9.38912 69.1276 8.62272C68.7219 7.85802 68.1498 7.25359 67.4264 6.82393C66.703 6.39427 65.8469 6.17603 64.8818 6.17603C63.9167 6.17603 63.0023 6.39427 62.2494 6.82564C61.4998 7.25445 60.9065 7.87081 60.4882 8.65426C60.0665 9.44198 59.8535 10.3797 59.8535 11.4402V11.696C59.8535 12.7429 60.0699 13.673 60.4975 14.4607C60.9234 15.2458 61.5234 15.8605 62.2806 16.291C63.0404 16.7224 63.9438 16.9406 64.9663 16.9406C65.8807 16.9406 66.6371 16.7957 67.2168 16.5101C67.7982 16.2237 68.274 15.8648 68.6307 15.4445C68.9442 15.0736 69.196 14.7156 69.382 14.3771L67.9013 13.6039C67.6715 14.0412 67.3622 14.436 66.9777 14.777C66.5298 15.1751 65.8672 15.3771 65.0086 15.3771C64.0908 15.3771 63.3133 15.0856 62.6973 14.5076C62.0778 13.9279 61.7499 13.1436 61.7203 12.1717L61.7144 11.9876H69.7403V11.3337L69.7411 11.3345ZM61.7144 10.6602L61.7431 10.4565C61.8623 9.6193 62.1986 8.95349 62.7454 8.47779C63.2914 8.00295 64.0029 7.76254 64.8615 7.76254C65.7202 7.76254 66.4292 8.00295 66.9675 8.47864C67.5101 8.9569 67.8151 9.62612 67.8743 10.4684L67.8878 10.6602H61.7153H61.7144Z" fill="#FAFAFA"/>
<path d="M76.1548 11.506L79.9357 6.47534H77.801L75.0714 10.2545H74.5525L71.8228 6.47534H69.7076L73.4674 11.506L69.623 16.6432H71.7789L74.5516 12.7796H75.0714L77.8441 16.6432H80.0008L76.1556 11.506H76.1548Z" fill="#FAFAFA"/>
</svg>
