<svg width="138" height="32" viewBox="0 0 138 32" fill="none" xmlns="http://www.w3.org/2000/svg">
<g clip-path="url(#clip0_36_50439)">
<path d="M14.1611 29.1206L10.4597 31.253L10.0282 31.5015L7.42167 30L6.36185 29.3897L4.09788 28.0853L0 25.725V13.4147L0.173479 13.3147L4.09788 11.0544V23.325L6.36185 24.6294L7.42167 25.2397L10.4597 26.9883L11.5531 27.6192L14.1611 29.1206Z" fill="#5325A9"/>
<path d="M20.7081 4.26471L18.2984 2.87794L14.1669 0.5L10.0341 2.87794L7.61995 4.26912L6.3604 4.99265L4.09644 6.29706V11.0559L6.3604 9.75294L7.61849 9.02941L10.4583 7.39265L11.7514 6.64706L14.1669 5.25735L16.5752 6.64412L17.7692 7.33088V10.1118L14.1611 8.03529L10.4597 10.1662L10.0268 10.4162L6.36186 12.5265V21.6397L10.018 23.7456L10.4597 24L14.1509 26.125L17.7692 24.0426L18.2823 23.7471L21.8656 21.6838V9.69118L24.2797 11.0809V6.32206L20.7081 4.26471ZM17.7692 19.2824L14.1509 21.3647L10.4597 19.2382V14.9265L14.1611 12.7941L17.7692 14.8706V19.2794V19.2824Z" fill="#5325A9"/>
<path d="M28.3776 13.4396V20.9352L28.3368 20.9587L28.3776 20.9823V25.6955L24.2797 28.0558L21.8656 29.4455L20.8904 30.0073L18.2925 31.5029L17.7692 31.2014L14.1611 29.1234L16.7575 27.6279L17.7692 27.047L20.8904 25.2499L21.8656 24.6867L24.2797 23.297V11.0837L28.1458 13.3102L28.3776 13.444V13.4396Z" fill="#5325A9"/>
<path d="M49.0521 3.16187V13.253H47.9806L47.8931 13.0942C47.6439 12.6354 47.2736 12.1869 46.791 11.7589C46.31 11.3325 45.686 10.9751 44.9338 10.6927C44.1801 10.4133 43.2267 10.2692 42.1013 10.2692C40.6537 10.2692 39.3038 10.628 38.0923 11.3339C36.8809 12.0383 35.9013 13.0766 35.1797 14.4177C34.4522 15.7648 34.0848 17.4001 34.0848 19.2795V19.831C34.0848 21.7339 34.458 23.3736 35.1942 24.7075C35.9304 26.0383 36.9173 27.0722 38.1288 27.7766C39.3417 28.4825 40.677 28.8413 42.1013 28.8413C43.7821 28.8413 45.0825 28.5369 45.963 27.9369C46.8567 27.3266 47.5331 26.6413 47.9704 25.8986L48.0593 25.7486H49.1235V28.3266H52.1995V3.16187H49.0521ZM49.0885 19.7192C49.0885 21.7604 48.5244 23.3575 47.4092 24.4677C46.2969 25.578 44.8667 26.1398 43.1597 26.1398C41.4526 26.1398 40.0589 25.578 38.9466 24.4677C37.8343 23.3575 37.2687 21.7589 37.2687 19.7192V19.3869C37.2687 17.3722 37.8329 15.7854 38.9466 14.6751C40.0604 13.5648 41.4788 13.003 43.1597 13.003C44.8405 13.003 46.3275 13.5648 47.4296 14.6766C48.5302 15.7869 49.0885 17.3736 49.0885 19.3869V19.7192Z" fill="white"/>
<path d="M71.4265 19.1664C71.4265 17.3855 71.0694 15.8105 70.3667 14.4884C69.667 13.1693 68.68 12.1266 67.4336 11.3855C66.1843 10.6443 64.7075 10.2678 63.0427 10.2678C61.3779 10.2678 59.8005 10.6443 58.5031 11.3884C57.2086 12.1281 56.1852 13.1914 55.4621 14.5428C54.7361 15.9016 54.3673 17.5208 54.3673 19.3487V19.7899C54.3673 21.5958 54.7405 23.2002 55.4782 24.559C56.2143 25.9134 57.2494 26.9737 58.5556 27.7164C59.8647 28.4605 61.4231 28.8369 63.1885 28.8369C64.7644 28.8369 66.0691 28.5869 67.0691 28.0943C68.0736 27.6002 68.8943 26.9811 69.508 26.2561C70.0504 25.6164 70.4848 24.9987 70.804 24.4149L68.25 23.0811C67.8549 23.8355 67.3199 24.5164 66.6566 25.1046C65.8854 25.7914 64.741 26.1399 63.2599 26.1399C61.6782 26.1399 60.3356 25.6369 59.2728 24.6399C58.2057 23.6399 57.6372 22.2869 57.5876 20.6105L57.5788 20.2928H71.4236V19.1649L71.4265 19.1664ZM57.5803 18.0031L57.6313 17.6516C57.8354 16.2075 58.4171 15.059 59.3574 14.2384C60.2991 13.4193 61.5266 13.0046 63.0077 13.0046C64.4888 13.0046 65.7119 13.4193 66.642 14.2399C67.5765 15.0649 68.1027 16.2193 68.2048 17.6722L68.2296 18.0031H57.5803Z" fill="white"/>
<path d="M81.2112 10.7119C80.3205 10.7119 79.5639 10.8781 78.9676 11.2075C78.383 11.5296 77.969 12.0266 77.7022 12.7237L77.6264 12.9193H76.5273V10.784H73.4513V28.3222H76.6001V17.9502C76.6001 16.4634 77.0287 15.3369 77.8743 14.6046C78.7067 13.8825 79.7811 13.5163 81.0683 13.5163H83.0611V10.7104H81.2126L81.2112 10.7119Z" fill="white"/>
<path d="M100.187 13.8472C99.6087 12.7869 98.8069 11.953 97.8025 11.3707C96.7951 10.7869 95.6245 10.4898 94.3227 10.4898C93.222 10.4898 92.3065 10.6251 91.601 10.8942C90.9012 11.1604 90.3356 11.503 89.9187 11.9133C89.493 12.331 89.1621 12.7633 88.9346 13.1986L88.8486 13.3633H87.7742V3.16187H84.6268V28.3236H87.7742V19.4619C87.7742 17.4266 88.2728 15.8457 89.2597 14.7589C90.2539 13.6677 91.5878 13.1133 93.2279 13.1133C94.6653 13.1133 95.8184 13.5192 96.6522 14.3222C97.4905 15.128 97.9147 16.3751 97.9147 18.0251V28.3222H101.062V17.7295C101.062 16.2192 100.768 14.9133 100.187 13.8457V13.8472Z" fill="white"/>
<path d="M120.305 19.1664C120.305 17.3855 119.949 15.8105 119.247 14.4884C118.547 13.1693 117.56 12.1266 116.312 11.3855C115.064 10.6443 113.588 10.2678 111.923 10.2678C110.258 10.2678 108.681 10.6443 107.382 11.3884C106.089 12.1281 105.065 13.1914 104.344 14.5428C103.616 15.9016 103.249 17.5193 103.249 19.3487V19.7899C103.249 21.5958 103.622 23.2002 104.36 24.559C105.094 25.9134 106.129 26.9737 107.436 27.7164C108.746 28.4605 110.305 28.8369 112.068 28.8369C113.646 28.8369 114.951 28.5869 115.951 28.0943C116.954 27.6002 117.774 26.9811 118.39 26.2561C118.93 25.6164 119.365 24.9987 119.686 24.4149L117.131 23.0811C116.735 23.8355 116.201 24.5164 115.538 25.1046C114.765 25.7914 113.623 26.1399 112.141 26.1399C110.558 26.1399 109.217 25.6369 108.154 24.6399C107.086 23.6399 106.52 22.2869 106.469 20.6105L106.459 20.2928H120.304V19.1649L120.305 19.1664ZM106.459 18.0031L106.508 17.6516C106.714 16.2075 107.294 15.059 108.237 14.2384C109.179 13.4193 110.407 13.0046 111.888 13.0046C113.369 13.0046 114.592 13.4193 115.521 14.2399C116.456 15.0649 116.983 16.2193 117.085 17.6722L117.108 18.0031H106.46H106.459Z" fill="white"/>
<path d="M131.367 19.4619L137.889 10.7839H134.207L129.498 17.3031H128.603L123.894 10.7839H120.245L126.731 19.4619L120.1 28.3236H123.818L128.602 21.6589H129.498L134.281 28.3236H138.001L131.368 19.4619H131.367Z" fill="white"/>
</g>
<defs>
<clipPath id="clip0_36_50439">
<rect width="138" height="31" fill="white" transform="translate(0 0.5)"/>
</clipPath>
</defs>
</svg>
