<svg width="172" height="38" viewBox="0 0 172 38" fill="none" xmlns="http://www.w3.org/2000/svg">
<g clip-path="url(#clip0_36_50910)">
<path d="M17.6501 35.0833L13.0368 37.6971L12.499 38.0018L9.2502 36.1612L7.92927 35.4131L5.10751 33.8142L0 30.9209V15.8309L0.21622 15.7083L5.10751 12.9376V27.979L7.92927 29.5779L9.2502 30.326L13.0368 32.4694L14.3995 33.2427L17.6501 35.0833Z" fill="white"/>
<path d="M25.8101 4.6148L22.8067 2.9149L17.6574 0L12.5062 2.9149L9.49733 4.62021L7.92747 5.50712L5.10571 7.10607V12.9395L7.92747 11.3423L9.49552 10.4554L13.035 8.44905L14.6466 7.5351L17.6574 5.83159L20.659 7.5315L22.1471 8.37334V11.7822L17.6501 9.23681L13.0368 11.8489L12.4972 12.1553L7.92929 14.7421V25.9132L12.4863 28.4946L13.0368 28.8065L17.6374 31.4113L22.1471 28.8587L22.7867 28.4964L27.2528 25.9673V11.2666L30.2617 12.9701V7.13672L25.8101 4.6148ZM22.1471 23.0235L17.6374 25.5761L13.0368 22.9694V17.6841L17.6501 15.0702L22.1471 17.6156V23.0199V23.0235Z" fill="white"/>
<path d="M35.3691 15.8616V25.0498L35.3183 25.0786L35.3691 25.1074V30.885L30.2616 33.7782L27.2527 35.4817L26.0372 36.1703L22.7993 38.0036L22.147 37.6341L17.65 35.0869L20.8861 33.2536L22.147 32.5416L26.0372 30.3387L27.2527 29.6483L30.2616 27.9448V12.9738L35.0802 15.703L35.3691 15.867V15.8616Z" fill="white"/>
<path d="M61.1375 3.26282V15.6326H59.802L59.693 15.438C59.3823 14.8755 58.9208 14.3257 58.3194 13.8011C57.7198 13.2784 56.9421 12.8403 56.0046 12.4942C55.0652 12.1517 53.8769 11.9751 52.4742 11.9751C50.6699 11.9751 48.9874 12.4149 47.4775 13.2802C45.9676 14.1437 44.7466 15.4163 43.8472 17.0604C42.9405 18.7116 42.4827 20.7161 42.4827 23.0199V23.6959C42.4827 26.0286 42.9478 28.0385 43.8654 29.6735C44.783 31.3049 46.013 32.5722 47.5229 33.4357C49.0347 34.301 50.699 34.7408 52.4742 34.7408C54.5692 34.7408 56.1899 34.3677 57.2874 33.6322C58.4012 32.8841 59.2442 32.044 59.7893 31.1337L59.9002 30.9498H61.2265V34.1099H65.0604V3.26282H61.1375ZM61.1829 23.5589C61.1829 26.061 60.4798 28.0187 59.0898 29.3797C57.7034 30.7407 55.921 31.4293 53.7933 31.4293C51.6656 31.4293 49.9286 30.7407 48.5423 29.3797C47.1559 28.0187 46.4509 26.0592 46.4509 23.5589V23.1515C46.4509 20.6819 47.1541 18.7368 48.5423 17.3758C49.9304 16.0148 51.6983 15.3262 53.7933 15.3262C55.8883 15.3262 57.7416 16.0148 59.1152 17.3776C60.487 18.7386 61.1829 20.6837 61.1829 23.1515V23.5589Z" fill="white"/>
<path d="M89.0244 22.8811C89.0244 20.6981 88.5793 18.7675 87.7035 17.1469C86.8313 15.5299 85.6012 14.2518 84.0477 13.3433C82.4906 12.4347 80.65 11.9733 78.575 11.9733C76.5 11.9733 74.5341 12.4347 72.917 13.3469C71.3035 14.2536 70.028 15.5569 69.1268 17.2136C68.2219 18.8792 67.7622 20.864 67.7622 23.1047V23.6455C67.7622 25.8591 68.2274 27.8258 69.1467 29.4915C70.0643 31.1517 71.3544 32.4514 72.9824 33.3618C74.614 34.2739 76.5564 34.7354 78.7567 34.7354C80.7209 34.7354 82.347 34.429 83.5935 33.8251C84.8454 33.2194 85.8683 32.4605 86.6333 31.5717C87.3092 30.7876 87.8506 30.0305 88.2486 29.3148L85.0652 27.6798C84.5728 28.6046 83.906 29.4392 83.0793 30.1603C82.1181 31.0021 80.6918 31.4293 78.8457 31.4293C76.8743 31.4293 75.2009 30.8128 73.8763 29.5906C72.5463 28.3648 71.8377 26.7064 71.7759 24.6514L71.765 24.262H89.0208V22.8793L89.0244 22.8811ZM71.7668 21.4552L71.8304 21.0244C72.0848 19.2542 72.8098 17.8463 73.9817 16.8404C75.1555 15.8364 76.6854 15.328 78.5314 15.328C80.3774 15.328 81.9019 15.8364 83.0611 16.8422C84.2258 17.8535 84.8817 19.2686 85.0089 21.0496L85.0398 21.4552H71.7668Z" fill="white"/>
<path d="M101.22 12.5177C100.11 12.5177 99.1668 12.7214 98.4236 13.1252C97.695 13.5199 97.179 14.1292 96.8465 14.9837L96.752 15.2235H95.382V12.606H91.5482V34.1045H95.4729V21.3903C95.4729 19.5679 96.0071 18.187 97.0609 17.2893C98.0984 16.4042 99.4375 15.9553 101.042 15.9553H103.526V12.5159H101.222L101.22 12.5177Z" fill="white"/>
<path d="M124.871 16.3609C124.15 15.0612 123.151 14.0391 121.899 13.3252C120.643 12.6096 119.184 12.2455 117.562 12.2455C116.19 12.2455 115.049 12.4113 114.169 12.7412C113.297 13.0675 112.592 13.4875 112.073 13.9904C111.542 14.5024 111.13 15.0324 110.846 15.5659L110.739 15.7678H109.4V3.26282H105.477V34.1063H109.4V23.2435C109.4 20.7486 110.021 18.8107 111.251 17.4786C112.491 16.141 114.153 15.4614 116.197 15.4614C117.989 15.4614 119.426 15.9589 120.465 16.9432C121.51 17.931 122.039 19.4597 122.039 21.4823V34.1045H125.962V21.1199C125.962 19.2686 125.595 17.6678 124.871 16.3591V16.3609Z" fill="white"/>
<path d="M149.946 22.8811C149.946 20.6981 149.502 18.7675 148.626 17.1469C147.754 15.5299 146.524 14.2518 144.969 13.3433C143.414 12.4347 141.573 11.9733 139.498 11.9733C137.423 11.9733 135.457 12.4347 133.838 13.3469C132.226 14.2536 130.951 15.5569 130.052 17.2136C129.145 18.8792 128.687 20.8622 128.687 23.1047V23.6455C128.687 25.8591 129.152 27.8258 130.072 29.4915C130.987 31.1517 132.277 32.4514 133.905 33.3618C135.539 34.2739 137.481 34.7354 139.68 34.7354C141.646 34.7354 143.272 34.429 144.518 33.8251C145.768 33.2194 146.791 32.4605 147.558 31.5717C148.232 30.7876 148.774 30.0305 149.173 29.3148L145.99 27.6798C145.496 28.6046 144.831 29.4392 144.004 30.1603C143.041 31.0021 141.617 31.4293 139.771 31.4293C137.797 31.4293 136.126 30.8128 134.801 29.5906C133.469 28.3648 132.764 26.7064 132.701 24.6514L132.688 24.262H149.944V22.8793L149.946 22.8811ZM132.688 21.4552L132.75 21.0244C133.006 19.2542 133.729 17.8463 134.905 16.8404C136.078 15.8364 137.608 15.328 139.454 15.328C141.3 15.328 142.825 15.8364 143.982 16.8422C145.149 17.8535 145.805 19.2686 145.932 21.0496L145.961 21.4552H132.69H132.688Z" fill="white"/>
<path d="M163.733 23.2434L171.862 12.606H167.272L161.403 20.5971H160.288L154.419 12.606H149.871L157.955 23.2434L149.689 34.1062H154.325L160.286 25.9366H161.403L167.365 34.1062H172.002L163.735 23.2434H163.733Z" fill="white"/>
</g>
<defs>
<clipPath id="clip0_36_50910">
<rect width="172" height="38" fill="white"/>
</clipPath>
</defs>
</svg>
