<svg width="69" height="69" viewBox="0 0 69 69" fill="none" xmlns="http://www.w3.org/2000/svg">
<rect width="69" height="69" rx="34.5" fill="#1A073E"/>
<g clip-path="url(#clip0_1028_1406)">
<path d="M19.5 14.5C16.74 14.5 14.5 16.74 14.5 19.5V24.148C14.5011 25.2174 14.7879 26.267 15.3308 27.1883C15.8738 28.1096 16.653 28.869 17.588 29.388L29.092 35.784C26.6824 37.0005 24.7533 38.9938 23.6164 41.4419C22.4794 43.8901 22.2011 46.6501 22.8264 49.2759C23.4516 51.9017 24.9439 54.2401 27.0621 55.9132C29.1803 57.5863 31.8007 58.4963 34.5 58.4963C37.1993 58.4963 39.8197 57.5863 41.9379 55.9132C44.0561 54.2401 45.5484 51.9017 46.1736 49.2759C46.7989 46.6501 46.5205 43.8901 45.3836 41.4419C44.2467 38.9938 42.3176 37.0005 39.908 35.784L51.416 29.392C52.3508 28.8722 53.1297 28.1119 53.6719 27.1898C54.2141 26.2678 54.5 25.2176 54.5 24.148V19.5C54.5 16.74 52.26 14.5 49.5 14.5H19.5ZM30.5 31.988V18.5H38.5V31.988L34.5 34.212L30.5 31.988ZM42.5 46.5C42.5 48.6217 41.6571 50.6566 40.1569 52.1569C38.6566 53.6571 36.6217 54.5 34.5 54.5C32.3783 54.5 30.3434 53.6571 28.8431 52.1569C27.3429 50.6566 26.5 48.6217 26.5 46.5C26.5 44.3783 27.3429 42.3434 28.8431 40.8431C30.3434 39.3429 32.3783 38.5 34.5 38.5C36.6217 38.5 38.6566 39.3429 40.1569 40.8431C41.6571 42.3434 42.5 44.3783 42.5 46.5Z" fill="#CECBCB"/>
</g>
<defs>
<clipPath id="clip0_1028_1406">
<rect width="48" height="48" fill="white" transform="translate(10.5 10.5)"/>
</clipPath>
</defs>
</svg>
