<svg width="60" height="60" viewBox="0 0 60 60" fill="none" xmlns="http://www.w3.org/2000/svg">
<rect width="60" height="60" rx="30" fill="#17043B"/>
<path d="M30.0001 32.0417C33.6984 32.0417 36.7084 29.0317 36.7084 25.3333C36.7084 21.635 33.6984 18.625 30.0001 18.625C26.3017 18.625 23.2917 21.635 23.2917 25.3333C23.2917 29.0317 26.3017 32.0417 30.0001 32.0417ZM30.0001 20.375C32.7301 20.375 34.9584 22.6033 34.9584 25.3333C34.9584 28.0633 32.7301 30.2917 30.0001 30.2917C27.2701 30.2917 25.0417 28.0633 25.0417 25.3333C25.0417 22.6033 27.2701 20.375 30.0001 20.375Z" fill="white"/>
<path d="M38.0034 33.4065C34.69 31.9598 31.4234 32.7182 30 34.2698C28.5884 32.7182 25.31 31.9598 21.9967 33.4065C21.6 33.5815 21.39 34.0132 21.5067 34.4332C22.475 38.0265 25.275 40.1615 27.3984 40.1615C27.4684 40.1615 27.5267 40.1615 27.5967 40.1615C28.495 40.1032 29.3234 39.6598 30 38.9132C30.6767 39.6598 31.505 40.1032 32.4034 40.1615C32.4617 40.1615 32.5317 40.1615 32.6017 40.1615C34.725 40.1615 37.525 38.0265 38.4934 34.4332C38.61 34.0132 38.4 33.5815 38.0034 33.4065ZM28.9967 37.3965C28.6817 37.8632 28.1684 38.3765 27.4917 38.4115C26.3717 38.4582 24.3884 37.2098 23.4434 34.7248C25.975 33.9082 28.1917 34.6432 28.845 35.5765C29.2417 36.1365 29.1484 36.8482 28.9967 37.3848V37.3965ZM32.52 38.4115C31.8434 38.3648 31.33 37.8515 31.015 37.3965C30.8517 36.8598 30.77 36.1365 31.1667 35.5882C31.82 34.6665 34.0367 33.9198 36.5684 34.7365C35.6234 37.2215 33.71 38.4582 32.52 38.4232V38.4115Z" fill="white"/>
<path d="M28.8334 26.2085H31.1667C31.645 26.2085 32.0417 25.8118 32.0417 25.3335C32.0417 24.8552 31.645 24.4585 31.1667 24.4585H28.8334C28.355 24.4585 27.9584 24.8552 27.9584 25.3335C27.9584 25.8118 28.355 26.2085 28.8334 26.2085Z" fill="white"/>
</svg>
