<svg width="60" height="60" viewBox="0 0 60 60" fill="none" xmlns="http://www.w3.org/2000/svg">
<rect width="60" height="60" rx="30" fill="#17043B"/>
<path d="M40.115 24.6218C40.0217 23.6768 39.2984 22.9184 38.365 22.7901C37.175 22.6268 36.02 22.2768 34.935 21.7634C33.6284 21.1451 32.45 20.2934 31.4117 19.2318C30.6534 18.4501 29.3467 18.4501 28.5884 19.2318C27.55 20.2934 26.3717 21.1451 25.065 21.7634C23.98 22.2768 22.825 22.6268 21.635 22.7901C20.7017 22.9184 19.9784 23.6768 19.885 24.6218C19.64 26.9901 19.535 32.9984 23.6534 37.5018C25.205 39.1934 27.13 40.4418 29.37 41.2118C29.58 41.2818 29.79 41.3168 30 41.3168C30.21 41.3168 30.42 41.2818 30.63 41.2118C32.87 40.4418 34.795 39.1934 36.3467 37.5018C40.4767 32.9984 40.36 27.0018 40.115 24.6218ZM35.0517 36.3118C33.6984 37.7934 32.0184 38.8784 29.9417 39.5551C27.9817 38.8784 26.3017 37.7934 24.9484 36.3118C21.3084 32.3334 21.4134 26.9318 21.6234 24.7968C21.635 24.6451 21.74 24.5401 21.8684 24.5168C23.2334 24.3301 24.5634 23.9334 25.8117 23.3384C27.305 22.6268 28.6584 21.6584 29.825 20.4451C29.8717 20.3984 29.93 20.3751 29.9884 20.3751C30.0467 20.3751 30.105 20.3984 30.1517 20.4451C31.33 21.6584 32.6834 22.6268 34.1767 23.3384C35.425 23.9334 36.755 24.3301 38.12 24.5168C38.26 24.5401 38.3534 24.6451 38.365 24.7968C38.5867 26.9318 38.6917 32.3451 35.0517 36.3118Z" fill="white"/>
<path d="M32.8 27.1418L29.9067 31.0035L28.285 29.3818C27.9467 29.0435 27.3867 29.0435 27.0484 29.3818C26.71 29.7202 26.71 30.2802 27.0484 30.6185L29.3817 32.9518C29.545 33.1152 29.7667 33.2085 30 33.2085C30.0234 33.2085 30.0467 33.2085 30.0584 33.2085C30.315 33.1852 30.5484 33.0685 30.7 32.8585L34.2 28.1918C34.4917 27.8068 34.41 27.2585 34.025 26.9668C33.64 26.6752 33.0917 26.7568 32.8 27.1418Z" fill="white"/>
</svg>
