<svg width="69" height="69" viewBox="0 0 69 69" fill="none" xmlns="http://www.w3.org/2000/svg">
<rect width="69" height="69" rx="34.5" fill="#1A073E"/>
<path d="M21.3 15.3C21.6182 15.3 21.9234 15.4264 22.1485 15.6515C22.3735 15.8765 22.5 16.1817 22.5 16.5C22.5 25.1976 29.4024 32.1 38.1 32.1H40.0032L37.2504 29.3496C37.1388 29.238 37.0503 29.1056 36.9899 28.9598C36.9295 28.814 36.8984 28.6578 36.8984 28.5C36.8984 28.3422 36.9295 28.186 36.9899 28.0402C37.0503 27.8944 37.1388 27.762 37.2504 27.6504C37.4757 27.4251 37.7813 27.2985 38.1 27.2985C38.2577 27.2985 38.414 27.3295 38.5598 27.3899C38.7055 27.4503 38.838 27.5388 38.9496 27.6504L43.7496 32.4504C43.8613 32.5619 43.95 32.6943 44.0105 32.8401C44.071 32.9859 44.1021 33.1421 44.1021 33.3C44.1021 33.4578 44.071 33.6141 44.0105 33.7599C43.95 33.9057 43.8613 34.0381 43.7496 34.1496L38.9496 38.9496C38.838 39.0612 38.7055 39.1497 38.5598 39.21C38.414 39.2704 38.2577 39.3015 38.1 39.3015C37.9422 39.3015 37.7859 39.2704 37.6402 39.21C37.4944 39.1497 37.3619 39.0612 37.2504 38.9496C37.1388 38.838 37.0503 38.7056 36.9899 38.5598C36.9295 38.414 36.8984 38.2578 36.8984 38.1C36.8984 37.9422 36.9295 37.786 36.9899 37.6402C37.0503 37.4944 37.1388 37.362 37.2504 37.2504L40.0032 34.5H38.1C36.0475 34.4863 34.0128 34.8804 32.1139 35.6595C30.215 36.4387 28.4898 37.5872 27.0385 39.0386C25.5872 40.4899 24.4386 42.2151 23.6595 44.1139C22.8804 46.0128 22.4862 48.0475 22.5 50.1C22.5 50.4182 22.3735 50.7235 22.1485 50.9485C21.9234 51.1736 21.6182 51.3 21.3 51.3C20.9817 51.3 20.6765 51.1736 20.4514 50.9485C20.2264 50.7235 20.1 50.4182 20.1 50.1C20.0775 46.4665 21.1627 42.9123 23.2109 39.911C25.2591 36.9097 28.1731 34.6036 31.5648 33.3C28.1731 31.9964 25.2591 29.6903 23.2109 26.689C21.1627 23.6876 20.0775 20.1335 20.1 16.5C20.1 16.1817 20.2264 15.8765 20.4514 15.6515C20.6765 15.4264 20.9817 15.3 21.3 15.3ZM34.5767 37.3632C31.6318 38.1526 29.0568 39.9497 27.3 42.4416V44.1C27.3 45.373 27.8057 46.5939 28.7058 47.4941C29.606 48.3943 30.8269 48.9 32.1 48.9H46.5C47.773 48.9 48.9939 48.3943 49.8941 47.4941C50.7942 46.5939 51.3 45.373 51.3 44.1V22.5C51.3 21.2269 50.7942 20.006 49.8941 19.1059C48.9939 18.2057 47.773 17.7 46.5 17.7H32.1C30.8269 17.7 29.606 18.2057 28.7058 19.1059C27.8057 20.006 27.3 21.2269 27.3 22.5V24.1584C29.0568 26.6503 31.6318 28.4473 34.5767 29.2368C34.4174 28.4779 34.5074 27.6879 34.8335 26.9844C35.1596 26.2809 35.7043 25.7016 36.3863 25.3328C37.0684 24.964 37.8514 24.8254 38.6186 24.9377C39.3858 25.05 40.0962 25.4072 40.644 25.956L45.444 30.756C45.7785 31.0903 46.0439 31.4873 46.2249 31.9242C46.406 32.3611 46.4992 32.8294 46.4992 33.3024C46.4992 33.7753 46.406 34.2437 46.2249 34.6806C46.0439 35.1175 45.7785 35.5145 45.444 35.8488L40.644 40.6488C40.0959 41.1984 39.3849 41.5561 38.617 41.6687C37.849 41.7812 37.0653 41.6426 36.3826 41.2735C35.6998 40.9043 35.1547 40.3244 34.8284 39.6202C34.5021 38.9159 34.4122 38.1251 34.5719 37.3656" fill="#CECBCB"/>
</svg>
