<svg width="65" height="65" viewBox="0 0 65 65" fill="none" xmlns="http://www.w3.org/2000/svg">
<path d="M16.2497 21.6669L32.4997 29.7919L48.7497 21.6669L32.4997 13.5419L16.2497 21.6669ZM33.8241 8.43936L55.4718 19.4785C56.788 20.1502 57.262 21.6723 56.5307 22.8829C56.2758 23.2988 55.91 23.6354 55.4745 23.8552L33.8241 34.8944C33.4131 35.1007 32.9596 35.2081 32.4997 35.2081C32.0398 35.2081 31.5863 35.1007 31.1753 34.8944L9.52762 23.8552C8.21137 23.1835 7.73741 21.6614 8.46866 20.4508C8.72364 20.0349 9.08938 19.6983 9.52491 19.4785L31.1753 8.43936C31.9987 8.01956 33.0007 8.01956 33.8241 8.43936ZM33.8241 45.7223C33.4144 45.9328 32.9603 46.0426 32.4997 46.0426C32.0391 46.0426 31.5851 45.9328 31.1753 45.7223L9.52762 34.4908C8.21137 33.8083 7.73741 32.2591 8.46866 31.0296C8.72459 30.6104 9.0897 30.2687 9.52491 30.041C9.84081 29.8772 10.1915 29.7917 10.5473 29.7917C10.9032 29.7917 11.2538 29.8772 11.5697 30.041L31.178 40.2108C31.9987 40.6387 33.0007 40.6387 33.8241 40.2108L53.4297 30.041C53.7453 29.8777 54.0954 29.7924 54.4507 29.7924C54.8061 29.7924 55.1562 29.8777 55.4718 30.041C56.788 30.7235 57.262 32.2727 56.5307 33.5023C56.2748 33.9215 55.9097 34.2632 55.4745 34.4908L33.8241 45.7223ZM33.8241 56.5556C33.4144 56.7661 32.9603 56.8759 32.4997 56.8759C32.0391 56.8759 31.5851 56.7661 31.1753 56.5556L9.52762 45.3242C8.21137 44.6417 7.73741 43.0925 8.46866 41.8629C8.72459 41.4437 9.0897 41.102 9.52491 40.8744C9.84081 40.7105 10.1915 40.625 10.5473 40.625C10.9032 40.625 11.2538 40.7105 11.5697 40.8744L31.178 51.0442C31.9987 51.4721 33.0007 51.4721 33.8241 51.0442L53.4297 40.8744C53.7453 40.711 54.0954 40.6257 54.4507 40.6257C54.8061 40.6257 55.1562 40.711 55.4718 40.8744C56.788 41.5569 57.262 43.106 56.5307 44.3356C56.2748 44.7548 55.9097 45.0965 55.4745 45.3242L33.8241 56.5556Z" fill="white"/>
</svg>
