<svg width="98" height="32" viewBox="0 0 98 32" fill="none" xmlns="http://www.w3.org/2000/svg">
<path d="M8.85168 14.8788C9.39985 12.8333 11.5025 10.7307 13.548 10.1825L26.3006 6.76491C28.3461 6.21674 29.56 7.43057 29.0118 9.47608L25.5942 22.2287C25.046 24.2742 22.9434 26.3768 20.8979 26.925L8.14527 30.3426C6.09975 30.8908 4.88592 29.6769 5.4341 27.6314L8.85168 14.8788Z" fill="#9E77ED"/>
<path d="M3.73937 9.76623C4.28755 7.72071 6.39015 5.61812 8.43566 5.06994L21.1883 1.65236C23.2338 1.10418 24.4477 2.31801 23.8995 4.36353L20.4819 17.1162C19.9337 19.1617 17.8311 21.2643 15.7856 21.8125L3.03297 25.23C0.987451 25.7782 -0.226381 24.5644 0.321795 22.5189L3.73937 9.76623Z" fill="#6941C6"/>
<path d="M40.8614 20.9494H45.2481V22.6667H38.7334V9.69336H40.8614V20.9494Z" fill="white"/>
<path d="M46.3183 17.4774C46.3183 16.4445 46.5299 15.5298 46.953 14.7334C47.3886 13.9369 47.9734 13.3209 48.7077 12.8854C49.4543 12.4374 50.2757 12.2134 51.1717 12.2134C51.9806 12.2134 52.6837 12.3751 53.281 12.6987C53.8908 13.0098 54.3761 13.4018 54.737 13.8747V12.3814H56.8837V22.6667H54.737V21.136C54.3761 21.6214 53.8846 22.0258 53.2623 22.3494C52.6401 22.6729 51.9308 22.8347 51.1343 22.8347C50.2508 22.8347 49.4419 22.6107 48.7077 22.1627C47.9734 21.7022 47.3886 21.0676 46.953 20.2587C46.5299 19.4374 46.3183 18.5102 46.3183 17.4774ZM54.737 17.5147C54.737 16.8054 54.5877 16.1894 54.289 15.6667C54.0028 15.144 53.6232 14.7458 53.1503 14.472C52.6774 14.1982 52.1672 14.0614 51.6197 14.0614C51.0721 14.0614 50.5619 14.1982 50.089 14.472C49.6161 14.7334 49.2303 15.1254 48.9317 15.648C48.6454 16.1582 48.5023 16.768 48.5023 17.4774C48.5023 18.1867 48.6454 18.8089 48.9317 19.344C49.2303 19.8791 49.6161 20.2898 50.089 20.576C50.5743 20.8498 51.0846 20.9867 51.6197 20.9867C52.1672 20.9867 52.6774 20.8498 53.1503 20.576C53.6232 20.3022 54.0028 19.904 54.289 19.3814C54.5877 18.8462 54.737 18.224 54.737 17.5147Z" fill="white"/>
<path d="M68.9374 12.3814L62.628 27.5014H60.4254L62.516 22.4987L58.4654 12.3814H60.836L63.7294 20.2214L66.7347 12.3814H68.9374Z" fill="white"/>
<path d="M79.97 17.272C79.97 17.6578 79.9451 18.0062 79.8953 18.3174H72.0366C72.0988 19.1387 72.4037 19.7982 72.9513 20.296C73.4988 20.7938 74.1708 21.0427 74.9673 21.0427C76.1122 21.0427 76.9211 20.5636 77.394 19.6054H79.69C79.3788 20.5511 78.8126 21.3289 77.9913 21.9387C77.1824 22.536 76.1744 22.8347 74.9673 22.8347C73.9842 22.8347 73.1006 22.6169 72.3166 22.1814C71.5451 21.7334 70.9353 21.1111 70.4873 20.3147C70.0517 19.5058 69.834 18.5725 69.834 17.5147C69.834 16.4569 70.0455 15.5298 70.4686 14.7334C70.9042 13.9245 71.5077 13.3022 72.2793 12.8667C73.0633 12.4311 73.9593 12.2134 74.9673 12.2134C75.938 12.2134 76.8028 12.4249 77.562 12.848C78.3211 13.2711 78.9122 13.8685 79.3353 14.64C79.7584 15.3991 79.97 16.2765 79.97 17.272ZM77.7486 16.6C77.7362 15.816 77.4562 15.1876 76.9086 14.7147C76.3611 14.2418 75.6828 14.0054 74.874 14.0054C74.1397 14.0054 73.5113 14.2418 72.9886 14.7147C72.466 15.1751 72.1548 15.8036 72.0553 16.6H77.7486Z" fill="white"/>
<path d="M84.1921 13.8747C84.5032 13.352 84.9139 12.9476 85.4241 12.6614C85.9468 12.3627 86.5628 12.2134 87.2721 12.2134V14.416H86.7308C85.897 14.416 85.2623 14.6276 84.8268 15.0507C84.4037 15.4738 84.1921 16.208 84.1921 17.2534V22.6667H82.0641V12.3814H84.1921V13.8747Z" fill="white"/>
<path d="M92.9615 22.8347C92.1526 22.8347 91.4246 22.6916 90.7775 22.4054C90.1428 22.1067 89.6388 21.7085 89.2655 21.2107C88.8922 20.7005 88.6931 20.1342 88.6682 19.512H90.8708C90.9082 19.9476 91.1135 20.3147 91.4868 20.6134C91.8726 20.8996 92.3517 21.0427 92.9242 21.0427C93.5215 21.0427 93.982 20.9307 94.3055 20.7067C94.6415 20.4702 94.8095 20.1716 94.8095 19.8107C94.8095 19.4249 94.6228 19.1387 94.2495 18.952C93.8886 18.7654 93.31 18.56 92.5135 18.336C91.742 18.1245 91.1135 17.9191 90.6282 17.72C90.1428 17.5209 89.7197 17.216 89.3588 16.8054C89.0104 16.3947 88.8362 15.8534 88.8362 15.1814C88.8362 14.6338 88.998 14.136 89.3215 13.688C89.6451 13.2276 90.1055 12.8667 90.7028 12.6054C91.3126 12.344 92.0095 12.2134 92.7935 12.2134C93.9633 12.2134 94.9028 12.512 95.6122 13.1094C96.334 13.6942 96.7197 14.4969 96.7695 15.5174H94.6415C94.6042 15.0569 94.4175 14.6898 94.0815 14.416C93.7455 14.1422 93.2913 14.0054 92.7188 14.0054C92.1588 14.0054 91.7295 14.1111 91.4308 14.3227C91.1322 14.5342 90.9828 14.8142 90.9828 15.1627C90.9828 15.4365 91.0824 15.6667 91.2815 15.8534C91.4806 16.04 91.7233 16.1894 92.0095 16.3014C92.2957 16.4009 92.7188 16.5316 93.2788 16.6934C94.0255 16.8925 94.6353 17.0978 95.1082 17.3094C95.5935 17.5085 96.0104 17.8071 96.3588 18.2054C96.7073 18.6036 96.8877 19.1325 96.9002 19.792C96.9002 20.3769 96.7384 20.8996 96.4148 21.36C96.0913 21.8205 95.6308 22.1814 95.0335 22.4427C94.4486 22.704 93.758 22.8347 92.9615 22.8347Z" fill="white"/>
</svg>
