<svg width="90" height="90" viewBox="0 0 90 90" fill="none" xmlns="http://www.w3.org/2000/svg">
<rect x="0.5" y="0.5" width="89" height="89" rx="44.5" fill="#1A073E"/>
<path d="M46.365 25.348C46.1323 25.1249 45.8224 25.0004 45.5 25.0004C45.1776 25.0004 44.8677 25.1249 44.635 25.348C41.876 27.991 37.95 29.425 34.598 30.188C32.938 30.564 31.459 30.768 30.396 30.878C29.8459 30.9344 29.2944 30.9751 28.742 31H28.72C28.3937 31.0078 28.0834 31.143 27.8554 31.3766C27.6275 31.6101 27.4999 31.9236 27.5 32.25V41.75C27.5 46.587 28.743 51.408 31.598 55.525C34.459 59.651 38.888 62.994 45.127 64.943C45.37 65.019 45.63 65.019 45.873 64.943C46.435 64.767 46.982 64.5803 47.514 64.383C47.5044 64.2556 47.4998 64.1278 47.5 64V54C47.4997 52.837 47.9048 51.7102 48.6457 50.8137C49.3865 49.9171 50.4167 49.3069 51.559 49.088C51.7277 47.806 52.2481 46.5958 53.0626 45.5916C53.877 44.5873 54.9537 43.8282 56.1732 43.3984C57.3927 42.9687 58.7074 42.885 59.9715 43.1568C61.2357 43.4285 62.3998 44.045 63.335 44.938C63.4457 43.962 63.5007 42.9827 63.5 42V32.25C63.5001 31.9236 63.3725 31.6101 63.1446 31.3766C62.9166 31.143 62.6063 31.0078 62.28 31H62.258L62.178 30.997L61.85 30.98C61.434 30.955 61.0186 30.9209 60.604 30.878C59.1909 30.7311 57.7878 30.5007 56.402 30.188C53.049 29.425 49.123 27.991 46.365 25.348ZM53.5 51V50C53.5 48.6739 54.0268 47.4021 54.9645 46.4645C55.9021 45.5268 57.1739 45 58.5 45C59.8261 45 61.0979 45.5268 62.0355 46.4645C62.9732 47.4021 63.5 48.6739 63.5 50V51H64.5C65.2957 51 66.0587 51.3161 66.6213 51.8787C67.1839 52.4413 67.5 53.2043 67.5 54V64C67.5 64.7956 67.1839 65.5587 66.6213 66.1213C66.0587 66.6839 65.2957 67 64.5 67H52.5C51.7044 67 50.9413 66.6839 50.3787 66.1213C49.8161 65.5587 49.5 64.7956 49.5 64V54C49.5 53.2043 49.8161 52.4413 50.3787 51.8787C50.9413 51.3161 51.7044 51 52.5 51H53.5ZM56 50V51H61V50C61 49.337 60.7366 48.7011 60.2678 48.2322C59.7989 47.7634 59.163 47.5 58.5 47.5C57.837 47.5 57.2011 47.7634 56.7322 48.2322C56.2634 48.7011 56 49.337 56 50ZM61.5 59C61.5 58.2043 61.1839 57.4413 60.6213 56.8787C60.0587 56.3161 59.2956 56 58.5 56C57.7044 56 56.9413 56.3161 56.3787 56.8787C55.8161 57.4413 55.5 58.2043 55.5 59C55.5 59.7956 55.8161 60.5587 56.3787 61.1213C56.9413 61.6839 57.7044 62 58.5 62C59.2956 62 60.0587 61.6839 60.6213 61.1213C61.1839 60.5587 61.5 59.7956 61.5 59Z" fill="#CECBCB"/>
</svg>
