<svg width="60" height="60" viewBox="0 0 60 60" fill="none" xmlns="http://www.w3.org/2000/svg">
<rect width="60" height="60" rx="30" fill="#17043B"/>
<path d="M38.1667 18.625H24.1667C22.3933 18.625 20.9583 20.06 20.9583 21.8333V23.2917H19.5C19.0217 23.2917 18.625 23.6883 18.625 24.1667C18.625 24.645 19.0217 25.0417 19.5 25.0417H20.9583V29.125H19.5C19.0217 29.125 18.625 29.5217 18.625 30C18.625 30.4783 19.0217 30.875 19.5 30.875H20.9583V34.9583H19.5C19.0217 34.9583 18.625 35.355 18.625 35.8333C18.625 36.3117 19.0217 36.7083 19.5 36.7083H20.9583V38.1667C20.9583 39.94 22.3933 41.375 24.1667 41.375H38.1667C39.94 41.375 41.375 39.94 41.375 38.1667V21.8333C41.375 20.06 39.94 18.625 38.1667 18.625ZM39.625 38.1667C39.625 38.9717 38.9717 39.625 38.1667 39.625H24.1667C23.3617 39.625 22.7083 38.9717 22.7083 38.1667V36.7083H23C23.4783 36.7083 23.875 36.3117 23.875 35.8333C23.875 35.355 23.4783 34.9583 23 34.9583H22.7083V30.875H23C23.4783 30.875 23.875 30.4783 23.875 30C23.875 29.5217 23.4783 29.125 23 29.125H22.7083V25.0417H23C23.4783 25.0417 23.875 24.645 23.875 24.1667C23.875 23.6883 23.4783 23.2917 23 23.2917H22.7083V21.8333C22.7083 21.0283 23.3617 20.375 24.1667 20.375H38.1667C38.9717 20.375 39.625 21.0283 39.625 21.8333V38.1667Z" fill="white"/>
<path d="M31.1666 29.7082C32.94 29.7082 34.375 28.2732 34.375 26.4998C34.375 24.7265 32.94 23.2915 31.1666 23.2915C29.3933 23.2915 27.9583 24.7265 27.9583 26.4998C27.9583 28.2732 29.3933 29.7082 31.1666 29.7082ZM31.1666 25.0415C31.9716 25.0415 32.625 25.6948 32.625 26.4998C32.625 27.3048 31.9716 27.9582 31.1666 27.9582C30.3616 27.9582 29.7083 27.3048 29.7083 26.4998C29.7083 25.6948 30.3616 25.0415 31.1666 25.0415Z" fill="white"/>
<path d="M32.3334 31.4585H30C28.2267 31.4585 26.7917 32.8935 26.7917 34.6668V35.8335C26.7917 36.3118 27.1884 36.7085 27.6667 36.7085C28.145 36.7085 28.5417 36.3118 28.5417 35.8335V34.6668C28.5417 33.8618 29.195 33.2085 30 33.2085H32.3334C33.1384 33.2085 33.7917 33.8618 33.7917 34.6668V35.8335C33.7917 36.3118 34.1884 36.7085 34.6667 36.7085C35.145 36.7085 35.5417 36.3118 35.5417 35.8335V34.6668C35.5417 32.8935 34.1067 31.4585 32.3334 31.4585Z" fill="white"/>
</svg>
