<svg width="24" height="31" viewBox="0 0 24 31" fill="none" xmlns="http://www.w3.org/2000/svg">
<g clip-path="url(#clip0_1023_1296)">
<path d="M19.5236 28.7875C19.3328 30.1816 17.9607 31.2748 16.5887 30.8933C14.6444 30.365 12.3919 29.5285 10.3668 29.3745L7.25592 29.1396C6.75616 29.1045 6.28648 28.8879 5.93524 28.5306L0.579154 23.0425C0.294728 22.7502 0.104836 22.379 0.0341635 21.9773C-0.0365089 21.5756 0.0153077 21.1619 0.182877 20.79C0.182877 20.79 3.48456 13.5556 3.61669 13.1814C3.73406 12.8072 4.18907 9.52017 4.45313 7.75924C4.52718 7.29168 4.76044 6.86404 5.11346 6.54866L11.438 0.884247C11.6464 0.697298 11.8908 0.554912 12.1562 0.465828C12.4215 0.376745 12.7023 0.342844 12.9813 0.366209C13.2603 0.389573 13.5315 0.469709 13.7784 0.601696C14.0253 0.733683 14.2426 0.914737 14.4169 1.13374L19.7437 7.85458C20.0418 8.23839 20.202 8.71134 20.1986 9.19729C20.1986 10.4666 20.3087 13.0859 21.0203 14.7736C21.7265 16.2912 22.6028 17.7238 23.6323 19.0437C23.757 19.2056 23.8306 19.4009 23.8437 19.6048C23.8567 19.8087 23.8087 20.0118 23.7057 20.1883C23.2435 20.9734 22.319 22.4848 21.0203 24.4144C20.198 25.7411 19.684 27.2356 19.5162 28.7874L19.5236 28.7875Z" fill="black" fill-opacity="0.3"/>
<path d="M19.575 28.5527C19.3843 29.9541 18.0122 31.0473 16.6401 30.6732C14.7032 30.1375 12.4579 29.3011 10.4256 29.147L7.32198 28.9122C6.82106 28.8757 6.35101 28.6564 6.00131 28.2959L0.645218 22.793C0.357962 22.4978 0.166474 22.1228 0.0957895 21.7169C0.0251052 21.3111 0.0785147 20.8934 0.249035 20.5185C0.249035 20.5185 3.558 13.2547 3.68275 12.8732C3.8075 12.4991 4.25513 9.20467 4.51919 7.42908C4.59162 6.95887 4.82502 6.52838 5.17953 6.21111L11.5042 0.524852C11.713 0.338329 11.9578 0.19647 12.2234 0.107986C12.4891 0.0195028 12.77 -0.0137358 13.049 0.0103118C13.328 0.0343595 13.5991 0.115186 13.8457 0.247826C14.0923 0.380466 14.3092 0.56212 14.483 0.781629L19.8025 7.53179C20.0995 7.91616 20.2596 8.38875 20.2573 8.8745C20.2573 10.1512 20.3675 12.7779 21.0718 14.4727C21.7774 15.9976 22.6537 17.4376 23.6838 18.765C23.8112 18.9268 23.887 19.1231 23.9013 19.3285C23.9157 19.5339 23.8681 19.7389 23.7645 19.9168C23.2948 20.7093 22.3778 22.2207 21.0718 24.1651C20.2526 25.498 19.7413 26.997 19.575 28.5527Z" fill="#6C31E3"/>
<path d="M6.57324 28.7067C9.06052 23.6662 8.99441 20.049 7.93061 17.4809C6.96214 15.1037 5.14985 13.6069 3.72647 12.6752C3.69801 12.8119 3.65367 12.9449 3.59434 13.0714L0.248679 20.5185C0.0790775 20.8942 0.0268534 21.3123 0.0988432 21.7182C0.170833 22.124 0.363682 22.4987 0.652146 22.7931L6.00095 28.2959C6.16866 28.4624 6.36185 28.6011 6.57324 28.7067Z" fill="url(#paint0_radial_1023_1296)"/>
<path d="M13.3383 18.4788C14.01 18.5448 14.6707 18.6951 15.3048 18.9263C17.3444 19.6894 19.2007 21.4063 20.7342 24.7154C20.8443 24.5246 20.9543 24.3412 21.0717 24.1651C22.0088 22.7745 22.9068 21.3578 23.7644 19.9168C23.869 19.7396 23.9179 19.535 23.9048 19.3296C23.8917 19.1243 23.8173 18.9275 23.691 18.765C22.6584 17.4379 21.7796 15.998 21.0717 14.4727C20.3673 12.7852 20.2646 10.1512 20.2572 8.8745C20.2572 8.39026 20.1032 7.91331 19.8024 7.53179L14.4829 0.781631L14.3949 0.671637C14.7838 1.95552 14.7618 2.98282 14.5196 3.91459C14.2995 4.78035 13.8887 5.56543 13.4557 6.39459C13.309 6.6734 13.1622 6.9595 13.0228 7.25297C12.3328 8.57082 11.9373 10.0228 11.8636 11.5086C11.7902 13.2842 12.1497 15.5073 13.3311 18.4789L13.3383 18.4788Z" fill="url(#paint1_radial_1023_1296)"/>
<path d="M13.3308 18.4788C12.1494 15.5073 11.7899 13.2842 11.8633 11.5085C11.9367 9.74763 12.4503 8.42696 13.0225 7.25297L13.4628 6.39459C13.8884 5.56543 14.292 4.78035 14.5193 3.91459C14.7894 2.84399 14.7461 1.71833 14.3946 0.671636C13.6349 -0.163123 12.3441 -0.228671 11.5037 0.524853L5.17927 6.21111C4.82476 6.52838 4.59136 6.95887 4.51893 7.42908L3.7486 12.5357C3.7486 12.587 3.73385 12.6311 3.72656 12.6825C5.14995 13.6069 6.95486 15.1037 7.9307 17.4736C8.12147 17.9432 8.28291 18.4348 8.40028 18.9704C10.0037 18.5259 11.6709 18.3572 13.3309 18.4715L13.3308 18.4788Z" fill="url(#paint2_radial_1023_1296)"/>
<path d="M16.6471 30.6732C18.0118 31.0473 19.3838 29.9541 19.5746 28.5453C19.7308 27.2091 20.126 25.9118 20.7412 24.7154C19.2004 21.4062 17.3441 19.6894 15.3117 18.9263C13.1473 18.1193 10.7921 18.3908 8.40014 18.9704C8.93573 21.3991 8.62022 24.576 6.58057 28.7067C6.80802 28.8241 7.0648 28.8902 7.32158 28.9122L10.5426 29.1543C12.2888 29.279 14.8935 30.1815 16.6471 30.6731" fill="url(#paint3_radial_1023_1296)"/>
<path d="M11.8783 11.3985C11.7976 13.1594 12.0177 15.1698 13.199 18.134L12.8321 18.0973C11.7682 15.0084 11.5335 13.4236 11.6142 11.6406C11.6875 9.85772 12.2672 8.4856 12.8395 7.31171C12.9862 7.01823 13.3237 6.46789 13.4705 6.18908C13.896 5.36001 14.1822 4.92713 14.4243 4.17137C14.7765 3.11485 14.7031 2.61595 14.6591 2.11706C14.9306 3.91459 13.896 5.47738 13.1183 7.06959C12.3982 8.40693 11.9729 9.883 11.871 11.3985H11.8783Z" fill="url(#paint4_radial_1023_1296)"/>
<path d="M8.28299 17.6057C8.42968 17.9286 8.55443 18.1927 8.64248 18.5962L8.32697 18.6696C8.20222 18.2 8.10689 17.8625 7.92341 17.459C6.85223 14.9423 5.13528 13.6436 3.74121 12.6898C5.42884 13.5997 7.16774 15.0303 8.2829 17.6057" fill="url(#paint5_radial_1023_1296)"/>
<path d="M8.65736 18.9191C9.2443 21.6705 8.58396 25.1702 6.63965 28.5747C8.26855 25.1996 9.06092 21.9639 8.40058 18.963L8.65736 18.9117V18.9191Z" fill="url(#paint6_radial_1023_1296)"/>
<path d="M15.3781 18.6623C18.5697 19.8582 19.8024 22.4775 20.7195 24.6713C19.5822 22.3822 18.0048 19.8508 15.2607 18.9117C13.1769 18.1927 11.4161 18.2807 8.40049 18.963L8.33447 18.6696C11.5334 17.9358 13.2063 17.8479 15.3781 18.6696V18.6623Z" fill="url(#paint7_radial_1023_1296)"/>
</g>
<defs>
<radialGradient id="paint0_radial_1023_1296" cx="0" cy="0" r="1" gradientUnits="userSpaceOnUse" gradientTransform="translate(2661.28 25.4077) rotate(-104) scale(1402.31 2625.86)">
<stop stop-color="white" stop-opacity="0.4"/>
<stop offset="1" stop-opacity="0.1"/>
</radialGradient>
<radialGradient id="paint1_radial_1023_1296" cx="0" cy="0" r="1" gradientUnits="userSpaceOnUse" gradientTransform="translate(3112.81 653.76) rotate(-82) scale(2294.31 4577)">
<stop stop-color="white" stop-opacity="0.6"/>
<stop offset="1" stop-color="white" stop-opacity="0.1"/>
</radialGradient>
<radialGradient id="paint2_radial_1023_1296" cx="0" cy="0" r="1" gradientUnits="userSpaceOnUse" gradientTransform="translate(2649.4 1053.48) rotate(-77) scale(1960.08 3390.28)">
<stop stop-color="white" stop-opacity="0.8"/>
<stop offset="1" stop-color="white" stop-opacity="0.4"/>
</radialGradient>
<radialGradient id="paint3_radial_1023_1296" cx="0" cy="0" r="1" gradientUnits="userSpaceOnUse" gradientTransform="translate(1023.5 2.07898e+06) scale(1304 1135.01)">
<stop stop-color="white" stop-opacity="0.3"/>
<stop offset="1" stop-opacity="0.3"/>
</radialGradient>
<radialGradient id="paint4_radial_1023_1296" cx="0" cy="0" r="1" gradientUnits="userSpaceOnUse" gradientTransform="translate(-737.998 342.098) rotate(102) scale(1020.29 5265.22)">
<stop stop-color="white" stop-opacity="0"/>
<stop offset="1" stop-color="white" stop-opacity="0.2"/>
</radialGradient>
<radialGradient id="paint5_radial_1023_1296" cx="0" cy="0" r="1" gradientUnits="userSpaceOnUse" gradientTransform="translate(-30.0568 -94.7841) rotate(45) scale(752.305 917.841)">
<stop stop-color="white" stop-opacity="0.2"/>
<stop offset="1" stop-color="white" stop-opacity="0.4"/>
</radialGradient>
<radialGradient id="paint6_radial_1023_1296" cx="0" cy="0" r="1" gradientUnits="userSpaceOnUse" gradientTransform="translate(523.587 -145.3) rotate(80) scale(878.123 3814.69)">
<stop stop-color="white" stop-opacity="0.1"/>
<stop offset="1" stop-color="white" stop-opacity="0.3"/>
</radialGradient>
<radialGradient id="paint7_radial_1023_1296" cx="0" cy="0" r="1" gradientUnits="userSpaceOnUse" gradientTransform="translate(1238.77 -3.62072e+06) scale(2524.37 1342.29)">
<stop stop-color="white" stop-opacity="0.2"/>
<stop offset="0.5" stop-color="white" stop-opacity="0.2"/>
<stop offset="1" stop-color="white" stop-opacity="0.3"/>
</radialGradient>
<clipPath id="clip0_1023_1296">
<rect width="23.91" height="31" fill="white"/>
</clipPath>
</defs>
</svg>
