<svg width="90" height="89" viewBox="0 0 90 89" fill="none" xmlns="http://www.w3.org/2000/svg">
<rect x="0.5" width="89" height="89" rx="44.5" fill="#1A073E"/>
<g clip-path="url(#clip0_1020_919)">
<path d="M45.5 68.5C39.1348 68.5 33.0303 65.9714 28.5294 61.4706C24.0286 56.9697 21.5 50.8652 21.5 44.5C21.5 38.1348 24.0286 32.0303 28.5294 27.5294C33.0303 23.0286 39.1348 20.5 45.5 20.5C51.8652 20.5 57.9697 23.0286 62.4706 27.5294C66.9714 32.0303 69.5 38.1348 69.5 44.5C69.5 50.8652 66.9714 56.9697 62.4706 61.4706C57.9697 65.9714 51.8652 68.5 45.5 68.5ZM54.593 32.5C51.1081 32.5002 47.7661 33.8847 45.302 36.349L44.612 37.036C44.142 37.506 43.69 37.996 43.256 38.506H38.45C38.0014 38.5072 37.5605 38.6227 37.1689 38.8416C36.7774 39.0605 36.448 39.3755 36.212 39.757L33.644 43.921C33.5546 44.0678 33.4999 44.2331 33.484 44.4042C33.468 44.5754 33.4913 44.7479 33.552 44.9087C33.6128 45.0695 33.7094 45.2144 33.8345 45.3322C33.9596 45.4501 34.1099 45.5379 34.274 45.589L38.93 47.02L42.98 51.07L44.414 55.729C44.4637 55.8938 44.5506 56.0449 44.668 56.1707C44.7854 56.2965 44.9302 56.3936 45.0912 56.4545C45.2521 56.5154 45.4249 56.5385 45.5962 56.5219C45.7675 56.5054 45.9327 56.4496 46.079 56.359L50.246 53.794C50.6269 53.5576 50.9414 53.2281 51.1597 52.8366C51.3781 52.445 51.4931 52.0043 51.494 51.556V46.741C52.004 46.309 52.494 45.857 52.964 45.385L53.654 44.695C56.1164 42.2312 57.4998 38.8904 57.5 35.407V35.128C57.5 34.431 57.2231 33.7626 56.7303 33.2697C56.2374 32.7769 55.569 32.5 54.872 32.5H54.593ZM39.272 53.932C39.5045 53.4078 39.5408 52.8181 39.3801 52.2676C39.2193 51.7172 38.8688 51.2414 38.3907 50.9247C37.9126 50.608 37.3378 50.4708 36.7682 50.5375C36.1986 50.6042 35.671 50.8704 35.279 51.289C34.094 52.471 33.587 55.063 33.419 56.149C33.4084 56.2075 33.4124 56.2677 33.4308 56.3242C33.4491 56.3807 33.4811 56.4319 33.524 56.473C33.5651 56.5159 33.6163 56.5479 33.6728 56.5662C33.7293 56.5846 33.7895 56.5886 33.848 56.578C34.934 56.41 37.526 55.903 38.708 54.721C38.9477 54.4991 39.1397 54.2306 39.272 53.932Z" fill="#CECBCB"/>
</g>
<defs>
<clipPath id="clip0_1020_919">
<rect width="48" height="48" fill="white" transform="translate(21.5 20.5)"/>
</clipPath>
</defs>
</svg>
