<svg width="31" height="31" viewBox="0 0 31 31" fill="none" xmlns="http://www.w3.org/2000/svg">
<path d="M18.7693 16.1058L8.54961 26.3242C8.03575 26.838 7.33881 27.1267 6.61211 27.1267C5.88541 27.1267 5.18847 26.838 4.67461 26.3242C4.16075 25.8103 3.87207 25.1134 3.87207 24.3867C3.87207 23.66 4.16075 22.963 4.67461 22.4492L14.8943 12.2295M20.2612 5.57224C18.3111 4.35741 16.1242 3.57276 13.8466 3.27072C11.569 2.96867 9.25318 3.15619 7.05386 3.82074C6.85806 3.94539 6.69947 4.12049 6.59476 4.32763C6.49005 4.53478 6.44309 4.76631 6.45882 4.99788C6.47455 5.22945 6.55239 5.4525 6.68414 5.64359C6.8159 5.83467 6.99672 5.98672 7.20757 6.08374C10.1492 7.08843 12.9061 8.56897 15.3683 10.4664" stroke="#813DFF" stroke-width="2" stroke-linecap="round" stroke-linejoin="round"/>
<path d="M22.8624 4.77914C22.6209 4.54248 22.2963 4.40991 21.9582 4.40991C21.6201 4.40991 21.2955 4.54248 21.0541 4.77914L15.1124 10.7208C14.8757 10.9623 14.7432 11.2869 14.7432 11.625C14.7432 11.9631 14.8757 12.2877 15.1124 12.5291L18.4707 15.8875C18.7122 16.1241 19.0368 16.2567 19.3749 16.2567C19.713 16.2567 20.0376 16.1241 20.2791 15.8875L26.2207 9.94581C26.4574 9.70436 26.59 9.37974 26.59 9.04164C26.59 8.70355 26.4574 8.37893 26.2207 8.13748L22.8624 4.77914Z" stroke="#813DFF" stroke-width="2" stroke-linecap="round" stroke-linejoin="round"/>
<path d="M25.428 10.7389C26.6428 12.689 27.4275 14.8759 27.7295 17.1535C28.0316 19.4311 27.844 21.7469 27.1795 23.9462C27.0548 24.1417 26.8797 24.3 26.6727 24.4045C26.4657 24.509 26.2344 24.5558 26.0031 24.5401C25.7717 24.5244 25.5489 24.4466 25.3579 24.3151C25.167 24.1836 25.0149 24.0031 24.9178 23.7925C23.9132 20.8504 22.4327 18.0931 20.5352 15.6305" stroke="#813DFF" stroke-width="2" stroke-linecap="round" stroke-linejoin="round"/>
</svg>
