<svg width="69" height="69" viewBox="0 0 69 69" fill="none" xmlns="http://www.w3.org/2000/svg">
<rect width="69" height="69" rx="34.5" fill="#1A073E"/>
<path d="M16.5 52.5C15.9333 52.5 15.4587 52.308 15.076 51.924C14.6933 51.54 14.5013 51.0653 14.5 50.5V30.5C14.5 29.9333 14.692 29.4587 15.076 29.076C15.46 28.6933 15.9347 28.5013 16.5 28.5H23.5C24.0667 28.5 24.542 28.692 24.926 29.076C25.31 29.46 25.5013 29.9347 25.5 30.5V50.5C25.5 51.0667 25.308 51.542 24.924 51.926C24.54 52.31 24.0653 52.5013 23.5 52.5H16.5ZM31 52.5C30.4333 52.5 29.9587 52.308 29.576 51.924C29.1933 51.54 29.0013 51.0653 29 50.5V18.5C29 17.9333 29.192 17.4587 29.576 17.076C29.96 16.6933 30.4347 16.5013 31 16.5H38C38.5667 16.5 39.042 16.692 39.426 17.076C39.81 17.46 40.0013 17.9347 40 18.5V50.5C40 51.0667 39.808 51.542 39.424 51.926C39.04 52.31 38.5653 52.5013 38 52.5H31ZM45.5 52.5C44.9333 52.5 44.4587 52.308 44.076 51.924C43.6933 51.54 43.5013 51.0653 43.5 50.5V34.5C43.5 33.9333 43.692 33.4587 44.076 33.076C44.46 32.6933 44.9347 32.5013 45.5 32.5H52.5C53.0667 32.5 53.542 32.692 53.926 33.076C54.31 33.46 54.5013 33.9347 54.5 34.5V50.5C54.5 51.0667 54.308 51.542 53.924 51.926C53.54 52.31 53.0653 52.5013 52.5 52.5H45.5Z" fill="#CECBCB"/>
</svg>
