<svg width="142" height="40" viewBox="0 0 142 40" fill="none" xmlns="http://www.w3.org/2000/svg">
<rect x="0.333496" y="16" width="7.99999" height="7.99999" fill="#039855"/>
<rect x="24.3335" y="24" width="8" height="7.99999" transform="rotate(180 24.3335 24)" fill="#027A48"/>
<path d="M8.3335 16L16.3335 8V16L8.3335 24V16Z" fill="#A6F4C5"/>
<path d="M16.3335 23.9999L8.33351 31.9999L8.33351 23.9999L16.3335 16L16.3335 23.9999Z" fill="#6CE9A6"/>
<path d="M0.333496 16L16.3335 0V7.99999L8.33348 16H0.333496Z" fill="#32D583"/>
<path d="M24.3335 24L8.33352 40L8.33351 32L16.3335 24L24.3335 24Z" fill="#12B76A"/>
<path d="M41.7569 28.5667C40.4969 28.5667 39.2758 28.3878 38.0936 28.03C36.9269 27.6722 36.0013 27.1978 35.3169 26.6067L36.3669 24.25C37.0358 24.7789 37.8524 25.2145 38.8169 25.5567C39.7969 25.8833 40.7769 26.0467 41.7569 26.0467C42.9702 26.0467 43.8724 25.8522 44.4636 25.4633C45.0702 25.0745 45.3736 24.5611 45.3736 23.9233C45.3736 23.4567 45.2024 23.0756 44.8602 22.78C44.5336 22.4689 44.1136 22.2278 43.6002 22.0567C43.0869 21.8856 42.3869 21.6911 41.5002 21.4733C40.2558 21.1778 39.2447 20.8822 38.4669 20.5867C37.7047 20.2911 37.0436 19.8322 36.4836 19.21C35.9391 18.5722 35.6669 17.7167 35.6669 16.6433C35.6669 15.7411 35.908 14.9245 36.3902 14.1933C36.888 13.4467 37.6269 12.8556 38.6069 12.42C39.6024 11.9845 40.8158 11.7667 42.2469 11.7667C43.2424 11.7667 44.2224 11.8911 45.1869 12.14C46.1513 12.3889 46.9836 12.7467 47.6836 13.2133L46.7269 15.57C46.0113 15.15 45.2647 14.8311 44.4869 14.6133C43.7091 14.3956 42.9547 14.2867 42.2236 14.2867C41.0258 14.2867 40.1313 14.4889 39.5402 14.8933C38.9647 15.2978 38.6769 15.8345 38.6769 16.5033C38.6769 16.97 38.8402 17.3511 39.1669 17.6467C39.5091 17.9422 39.9369 18.1756 40.4502 18.3467C40.9636 18.5178 41.6636 18.7122 42.5502 18.93C43.7636 19.21 44.7591 19.5056 45.5369 19.8167C46.3147 20.1122 46.9758 20.5711 47.5202 21.1933C48.0802 21.8156 48.3602 22.6556 48.3602 23.7133C48.3602 24.6156 48.1113 25.4322 47.6136 26.1633C47.1313 26.8945 46.3924 27.4778 45.3969 27.9133C44.4013 28.3489 43.188 28.5667 41.7569 28.5667Z" fill="white"/>
<path d="M51.088 15.8733H54.0047V28.3333H51.088V15.8733ZM52.558 13.82C52.0291 13.82 51.5858 13.6567 51.228 13.33C50.8703 12.9878 50.6914 12.5678 50.6914 12.07C50.6914 11.5722 50.8703 11.16 51.228 10.8333C51.5858 10.4911 52.0291 10.32 52.558 10.32C53.0869 10.32 53.5303 10.4833 53.888 10.81C54.2458 11.1211 54.4247 11.5178 54.4247 12C54.4247 12.5133 54.2458 12.9489 53.888 13.3067C53.5458 13.6489 53.1025 13.82 52.558 13.82Z" fill="white"/>
<path d="M61.6828 28.4967C60.6717 28.4967 59.6839 28.3645 58.7195 28.1C57.755 27.8356 56.985 27.5011 56.4095 27.0967L57.5295 24.88C58.0895 25.2533 58.7584 25.5567 59.5362 25.79C60.3295 26.0078 61.1073 26.1167 61.8695 26.1167C63.6117 26.1167 64.4828 25.6578 64.4828 24.74C64.4828 24.3045 64.2573 24.0011 63.8062 23.83C63.3706 23.6589 62.6628 23.4956 61.6828 23.34C60.6562 23.1845 59.8162 23.0056 59.1628 22.8033C58.525 22.6011 57.965 22.2511 57.4828 21.7533C57.0162 21.24 56.7828 20.5322 56.7828 19.63C56.7828 18.4478 57.2728 17.5067 58.2528 16.8067C59.2484 16.0911 60.5862 15.7333 62.2662 15.7333C63.1217 15.7333 63.9773 15.8345 64.8328 16.0367C65.6884 16.2233 66.3884 16.48 66.9328 16.8067L65.8128 19.0233C64.755 18.4011 63.565 18.09 62.2428 18.09C61.3873 18.09 60.7339 18.2222 60.2828 18.4867C59.8473 18.7356 59.6295 19.07 59.6295 19.49C59.6295 19.9567 59.8628 20.2911 60.3295 20.4933C60.8117 20.68 61.5506 20.8589 62.5462 21.03C63.5417 21.1856 64.3584 21.3645 64.9962 21.5667C65.6339 21.7689 66.1784 22.1111 66.6295 22.5933C67.0962 23.0756 67.3295 23.76 67.3295 24.6467C67.3295 25.8133 66.8239 26.7467 65.8128 27.4467C64.8017 28.1467 63.425 28.4967 61.6828 28.4967Z" fill="white"/>
<path d="M81.2801 15.8733L75.4467 29.3367C74.9023 30.69 74.2412 31.6389 73.4634 32.1833C72.6856 32.7433 71.7445 33.0233 70.6401 33.0233C70.0179 33.0233 69.4034 32.9222 68.7968 32.72C68.1901 32.5178 67.6923 32.2378 67.3034 31.88L68.4701 29.7333C68.7501 29.9978 69.0767 30.2078 69.4501 30.3633C69.839 30.5189 70.2279 30.5967 70.6167 30.5967C71.1301 30.5967 71.5501 30.4645 71.8767 30.2C72.219 29.9356 72.5301 29.4922 72.8101 28.87L73.0201 28.38L67.5834 15.8733H70.6167L74.5367 25.09L78.4801 15.8733H81.2801Z" fill="white"/>
<path d="M90.0097 15.7333C91.223 15.7333 92.3041 15.9978 93.253 16.5267C94.2174 17.0556 94.9719 17.8022 95.5163 18.7667C96.0608 19.7311 96.333 20.8433 96.333 22.1033C96.333 23.3633 96.0608 24.4833 95.5163 25.4633C94.9719 26.4278 94.2174 27.1745 93.253 27.7033C92.3041 28.2322 91.223 28.4967 90.0097 28.4967C88.3297 28.4967 86.9997 27.9367 86.0197 26.8167V32.86H83.103V15.8733H85.8797V17.5067C86.3619 16.9156 86.953 16.4722 87.653 16.1767C88.3685 15.8811 89.1541 15.7333 90.0097 15.7333ZM89.683 26C90.7563 26 91.6352 25.6422 92.3197 24.9267C93.0197 24.2111 93.3696 23.27 93.3696 22.1033C93.3696 20.9367 93.0197 19.9956 92.3197 19.28C91.6352 18.5645 90.7563 18.2067 89.683 18.2067C88.983 18.2067 88.353 18.37 87.793 18.6967C87.233 19.0078 86.7897 19.4589 86.463 20.05C86.1363 20.6411 85.973 21.3256 85.973 22.1033C85.973 22.8811 86.1363 23.5656 86.463 24.1567C86.7897 24.7478 87.233 25.2067 87.793 25.5333C88.353 25.8445 88.983 26 89.683 26Z" fill="white"/>
<path d="M106.169 15.7333C107.74 15.7333 109 16.1922 109.949 17.11C110.898 18.0278 111.372 19.3889 111.372 21.1933V28.3333H108.456V21.5667C108.456 20.4778 108.199 19.6611 107.686 19.1167C107.172 18.5567 106.441 18.2767 105.492 18.2767C104.419 18.2767 103.571 18.6033 102.949 19.2567C102.327 19.8945 102.016 20.82 102.016 22.0333V28.3333H99.0991V11.02H102.016V17.32C102.498 16.8067 103.089 16.4178 103.789 16.1533C104.505 15.8733 105.298 15.7333 106.169 15.7333Z" fill="white"/>
<path d="M127.136 15.8733V28.3333H124.359V26.7467C123.892 27.3067 123.309 27.7422 122.609 28.0533C121.909 28.3489 121.155 28.4967 120.346 28.4967C118.681 28.4967 117.367 28.0378 116.402 27.12C115.453 26.1867 114.979 24.81 114.979 22.99V15.8733H117.896V22.5933C117.896 23.7133 118.145 24.5533 118.642 25.1133C119.156 25.6578 119.879 25.93 120.812 25.93C121.855 25.93 122.679 25.6111 123.286 24.9733C123.908 24.32 124.219 23.3867 124.219 22.1733V15.8733H127.136Z" fill="white"/>
<path d="M134.805 28.4967C133.793 28.4967 132.806 28.3645 131.841 28.1C130.877 27.8356 130.107 27.5011 129.531 27.0967L130.651 24.88C131.211 25.2533 131.88 25.5567 132.658 25.79C133.451 26.0078 134.229 26.1167 134.991 26.1167C136.733 26.1167 137.605 25.6578 137.605 24.74C137.605 24.3045 137.379 24.0011 136.928 23.83C136.492 23.6589 135.785 23.4956 134.805 23.34C133.778 23.1845 132.938 23.0056 132.285 22.8033C131.647 22.6011 131.087 22.2511 130.605 21.7533C130.138 21.24 129.905 20.5322 129.905 19.63C129.905 18.4478 130.395 17.5067 131.375 16.8067C132.37 16.0911 133.708 15.7333 135.388 15.7333C136.243 15.7333 137.099 15.8345 137.955 16.0367C138.81 16.2233 139.51 16.48 140.055 16.8067L138.935 19.0233C137.877 18.4011 136.687 18.09 135.365 18.09C134.509 18.09 133.856 18.2222 133.405 18.4867C132.969 18.7356 132.751 19.07 132.751 19.49C132.751 19.9567 132.985 20.2911 133.451 20.4933C133.933 20.68 134.672 20.8589 135.668 21.03C136.663 21.1856 137.48 21.3645 138.118 21.5667C138.756 21.7689 139.3 22.1111 139.751 22.5933C140.218 23.0756 140.451 23.76 140.451 24.6467C140.451 25.8133 139.946 26.7467 138.935 27.4467C137.923 28.1467 136.547 28.4967 134.805 28.4967Z" fill="white"/>
</svg>
