<svg width="31" height="31" viewBox="0 0 31 31" fill="none" xmlns="http://www.w3.org/2000/svg">
<path d="M1.06598 0.939566V5.35343L13.6737 16.8623L6.95737 15.435L15.7284 22.3532C15.8234 21.4348 16.5994 20.7184 17.543 20.7184C18.5506 20.7184 19.3676 21.5352 19.3676 22.5429C19.3676 23.5504 18.5508 24.3675 17.543 24.3675C16.8869 24.3675 16.3118 24.0211 15.9903 23.5011L9.62803 23.3238L19.1137 27.6715L11.5605 29.055L14.1714 29.9781H21.4998C21.5577 29.641 21.6304 29.3065 21.7176 28.9757C20.9068 28.7205 20.3186 27.9628 20.3186 27.0676C20.3186 25.963 21.2141 25.0673 22.3191 25.0673C22.6846 25.0668 23.0432 25.1669 23.3556 25.3565C23.7147 24.8204 24.1125 24.3176 24.543 23.8544C24.2504 23.5977 24.0341 23.2562 23.9333 22.8678C23.6852 23.0787 23.3701 23.1944 23.0444 23.1939C22.285 23.1939 21.6692 22.5784 21.6692 21.8187C21.6692 21.0593 22.2848 20.4435 23.0444 20.4435C23.5749 20.4435 24.0352 20.7441 24.2646 21.1843C24.6248 20.7045 25.1986 20.394 25.8448 20.394C26.6268 20.394 27.3025 20.8483 27.6227 21.5075C28.357 21.134 29.1236 20.8581 29.9044 20.6946V16.6202L29.4421 12.6567L27.1382 19.0201L24.7776 9.05061L23.0415 15.8131L17.4082 6.09059L18.0289 13.3452L6.01678 0.939566H1.06598ZM17.298 15.5584C17.8237 15.5584 18.2687 15.9037 18.4188 16.3799C18.7538 16.0914 19.1813 15.9329 19.6234 15.9335C20.6451 15.9335 21.4737 16.7618 21.4737 17.7838C21.4737 18.8056 20.6454 19.6341 19.6234 19.6341C18.6096 19.6341 17.7865 18.8186 17.7736 17.8076C17.6239 17.8743 17.4618 17.9088 17.2979 17.9087C16.649 17.9087 16.1228 17.3826 16.1228 16.7335C16.1228 16.0846 16.6487 15.5584 17.2979 15.5584H17.298ZM24.0944 17.0772C24.7434 17.0772 25.2696 17.6032 25.2696 18.2524C25.2696 18.9013 24.7434 19.4274 24.0944 19.4274C23.4454 19.4274 22.9193 18.9015 22.9193 18.2523C22.9193 17.6033 23.4452 17.0771 24.0943 17.0771L24.0944 17.0772Z" fill="#813DFF"/>
<path d="M2.39505 1.15039L19.5833 16.5293H28.6049L11.4167 1.15039H2.39505ZM1.51367 1.82428V3.38923L18.8301 18.8828V17.3179L1.51367 1.82428ZM5.38867 8.31872V10.4127L22.7051 25.9062V20.7692L18.8301 19.982L5.38867 8.31872ZM4.69571 11.2551L2.09825 11.9043L19.523 27.495L22.1205 26.8458L4.69571 11.2551ZM1.51367 12.8438V14.2877L18.8301 29.7812V28.3373L1.51367 12.8438ZM19.9199 17.6191V18.9495L23.7949 19.9183V27.5505L19.9199 28.5192V29.8496H29.4863V28.5192L25.6113 27.5505V19.9183L29.4863 18.9495V17.6191H19.9199ZM26.7012 25.8453V26.6995L28.0259 27.0307L26.7012 25.8453Z" fill="#BD222B"/>
</svg>
