<svg width="246" height="246" viewBox="0 0 246 246" fill="none" xmlns="http://www.w3.org/2000/svg">
<path d="M46.125 20.5C31.98 20.5 20.5 31.98 20.5 46.125V69.946C20.5055 75.4265 21.9755 80.8059 24.758 85.5274C27.5405 90.249 31.5343 94.1412 36.326 96.801L95.284 129.581C82.9347 135.815 73.0481 146.031 67.2214 158.577C61.3947 171.124 59.9683 185.269 63.1726 198.727C66.3769 212.184 74.0249 224.168 84.8807 232.743C95.7366 241.317 109.166 245.981 123 245.981C136.834 245.981 150.263 241.317 161.119 232.743C171.975 224.168 179.623 212.184 182.827 198.727C186.032 185.269 184.605 171.124 178.779 158.577C172.952 146.031 163.065 135.815 150.716 129.581L209.695 96.8215C214.485 94.1573 218.477 90.2608 221.256 85.5355C224.035 80.8102 225.5 75.4279 225.5 69.946V46.125C225.5 31.98 214.02 20.5 199.875 20.5H46.125ZM102.5 110.126V41H143.5V110.126L123 121.524L102.5 110.126ZM164 184.5C164 195.374 159.68 205.802 151.991 213.491C144.302 221.18 133.874 225.5 123 225.5C112.126 225.5 101.698 221.18 94.0086 213.491C86.3196 205.802 82 195.374 82 184.5C82 173.626 86.3196 163.198 94.0086 155.509C101.698 147.82 112.126 143.5 123 143.5C133.874 143.5 144.302 147.82 151.991 155.509C159.68 163.198 164 173.626 164 184.5Z" fill="#5325A9"/>
</svg>
