<svg width="212" height="64" viewBox="0 0 212 64" fill="none" xmlns="http://www.w3.org/2000/svg">
<g opacity="0.8">
<g clip-path="url(#clip0_3655_14275)">
<path d="M99.8865 28.074C100.712 27.3035 102.161 26.9361 104.27 26.9361H109.205V24.1299H103.371C101.977 24.1299 100.803 24.2761 99.8865 24.5698C98.9875 24.8635 98.1992 25.3225 97.5203 25.9646C96.8045 26.6614 96.2362 27.5235 95.833 28.5508C95.4299 29.596 95.2277 30.7339 95.2277 31.9265C95.2277 33.1192 95.4299 34.1644 95.833 35.1739C96.2362 36.1834 96.8057 37.0633 97.5203 37.7601C98.1801 38.4022 98.9697 38.8612 99.8495 39.1549C100.748 39.4485 101.941 39.5948 103.371 39.5948H109.205V36.8243H104.27C103.151 36.8243 102.381 36.7874 101.941 36.6959C101.482 36.6043 101.06 36.4569 100.712 36.2369C100.015 35.7969 99.4821 35.2274 99.1338 34.5128C98.8032 33.816 98.6378 32.9349 98.6378 31.9075C98.6378 30.1465 99.0601 28.8445 99.8852 28.074H99.8865Z" fill="white"/>
<path d="M56.9425 39.6317H70.7006V36.917H60.2991V33.0455H69.3796V30.4783H60.2991V26.8826H70.7006V24.1489H56.9425V39.6317Z" fill="white"/>
<path d="M74.131 24.1489L80.5886 31.8909L74.131 39.6317H78.295L83.3767 33.5044V30.294L78.295 24.1489H74.131Z" fill="white"/>
<path d="M89.7607 24.1489L84.6788 30.294V33.5044L89.7607 39.6317H93.9247L87.4671 31.8909L93.9247 24.1489H89.7607Z" fill="white"/>
<path d="M43.459 31.7803L37.2772 24.1489H34.0859V39.6317H37.4426V29.3035L42.7991 35.7244H44.1011L49.4576 29.2488V39.6317H52.8155V24.1489H49.6598L43.459 31.7803Z" fill="white"/>
<path d="M121.357 39.6114L115.64 24.131H118.838L123.109 36.2214L127.242 24.131H130.361L124.633 39.6114H121.357Z" fill="white"/>
<path d="M135.854 39.8706C133.862 39.8706 132.37 39.2369 131.42 37.986C130.668 36.9789 130.285 35.6852 130.285 34.1406C130.285 32.2951 130.787 30.8338 131.776 29.7969C132.763 28.7624 134.03 28.2369 135.542 28.2369C137.244 28.2369 138.603 28.7862 139.583 29.8683C140.54 30.9265 141.017 32.5686 141.001 34.7494H133.136L133.141 34.9337C133.165 35.8766 133.437 36.6245 133.951 37.156C134.467 37.6911 135.119 37.9622 135.887 37.9622C136.417 37.9622 136.871 37.8183 137.237 37.5353C137.57 37.2773 137.829 36.8766 138.01 36.3427L140.765 36.7898C140.375 37.7589 139.785 38.5127 139.009 39.0324C138.176 39.5888 137.115 39.8718 135.855 39.8718L135.854 39.8706ZM135.732 30.2C134.998 30.2 134.383 30.4628 133.903 30.9812C133.426 31.4961 133.188 32.2 133.197 33.0716V33.25H138.249L138.244 33.0656C138.22 32.1441 137.967 31.4295 137.49 30.9408C137.011 30.4497 136.419 30.2 135.732 30.2Z" fill="white"/>
<path d="M151.56 39.6115V33.9349C151.56 32.6626 151.491 31.8564 151.348 31.4688C151.202 31.0704 150.958 30.7553 150.627 30.533C150.296 30.3118 149.897 30.2 149.439 30.2C148.862 30.2 148.337 30.3558 147.876 30.6626C147.413 30.9717 147.09 31.3879 146.918 31.9004C146.75 32.3986 146.668 33.2797 146.668 34.5936V39.6115H143.891V28.4961H146.445V30.5151L146.765 30.1132C147.758 28.8671 149.025 28.2357 150.531 28.2357C151.196 28.2357 151.811 28.3522 152.359 28.5841C152.901 28.8124 153.314 29.1049 153.587 29.4533C153.864 29.8053 154.059 30.2119 154.169 30.6602C154.28 31.1192 154.336 31.7922 154.336 32.6602V39.6115H151.559H151.56Z" fill="white"/>
<path d="M160.914 39.8707C160.374 39.8707 159.882 39.7827 159.452 39.6079C159.032 39.4378 158.722 39.2179 158.53 38.9563C158.335 38.6887 158.198 38.3166 158.121 37.8493C158.056 37.5044 158.024 36.7969 158.024 35.7387V30.5567H156.584V28.4961H158.024V26.1418L160.812 24.5722V28.4961H162.956V30.5567H160.812V35.3605C160.812 36.6412 160.85 36.9337 160.88 37.0431C160.931 37.2393 161.048 37.4022 161.23 37.5282C161.405 37.6495 161.618 37.7113 161.863 37.7113C162.136 37.7113 162.5 37.6364 162.971 37.4818L163.198 39.4795C162.524 39.7387 161.756 39.8695 160.914 39.8695V39.8707Z" fill="white"/>
<path d="M169.185 39.8706C168.423 39.8706 167.73 39.7065 167.127 39.3843C166.532 39.0668 166.097 38.6138 165.832 38.0407C165.561 37.4557 165.424 36.6269 165.424 35.5769V28.4961H168.202V33.5888C168.202 35.2369 168.261 36.225 168.383 36.609C168.511 37.0097 168.746 37.332 169.083 37.5662C169.417 37.7993 169.842 37.917 170.347 37.917C170.916 37.917 171.435 37.7636 171.886 37.4592C172.34 37.1548 172.657 36.7696 172.826 36.3141C172.991 35.8682 173.072 34.835 173.072 33.156V28.4949H175.849V39.6102H173.295V37.5056L172.968 37.9693C172.556 38.5543 172.005 39.0228 171.332 39.3605C170.657 39.6994 169.935 39.8706 169.186 39.8706H169.185Z" fill="white"/>
<path d="M179.321 39.6115V28.4961H181.875V30.5568L182.206 30.0454C182.687 29.3011 183.121 28.8077 183.494 28.577C183.861 28.351 184.285 28.2357 184.755 28.2357C185.386 28.2357 186.006 28.395 186.598 28.7113L185.754 31.011C185.268 30.7375 184.805 30.5996 184.375 30.5996C183.898 30.5996 183.485 30.7304 183.149 30.9884C182.809 31.2488 182.553 31.6947 182.365 32.351C182.184 32.9848 182.097 34.2595 182.097 36.2464V39.6103H179.319L179.321 39.6115Z" fill="white"/>
<path d="M193.006 39.8706C191.013 39.8706 189.522 39.2369 188.572 37.986C187.819 36.9789 187.436 35.6852 187.436 34.1406C187.436 32.2951 187.938 30.8338 188.927 29.7969C189.914 28.7624 191.182 28.2369 192.693 28.2369C194.396 28.2369 195.755 28.7862 196.735 29.8683C197.692 30.9265 198.168 32.5686 198.153 34.7494H190.288L190.292 34.9337C190.316 35.8766 190.589 36.6245 191.102 37.156C191.618 37.6911 192.271 37.9622 193.039 37.9622C193.568 37.9622 194.022 37.8183 194.389 37.5353C194.722 37.2773 194.981 36.8766 195.161 36.3427L197.916 36.7898C197.526 37.7589 196.937 38.5127 196.16 39.0324C195.328 39.5888 194.266 39.8718 193.007 39.8718L193.006 39.8706ZM192.883 30.2C192.15 30.2 191.535 30.4628 191.055 30.9812C190.578 31.4961 190.34 32.2 190.348 33.0716V33.25H195.4L195.396 33.0656C195.372 32.1441 195.119 31.4295 194.642 30.9408C194.163 30.4497 193.571 30.2 192.883 30.2Z" fill="white"/>
<path d="M205.463 39.8706C203.892 39.8706 202.636 39.5615 201.73 38.9503C200.887 38.3831 200.309 37.615 200.012 36.6649L202.795 36.2535C202.95 36.8064 203.233 37.2393 203.637 37.5413C204.076 37.8694 204.69 38.0359 205.463 38.0359C206.308 38.0359 206.959 37.879 207.398 37.571C207.724 37.3332 207.886 37.011 207.886 36.6138C207.886 36.3356 207.794 36.1001 207.612 35.9146C207.421 35.7386 207.062 35.5983 206.474 35.4652C203.975 34.9313 202.376 34.4426 201.722 34.0097C200.831 33.42 200.397 32.6245 200.397 31.5769C200.397 30.6304 200.774 29.8552 201.549 29.2083C202.323 28.5627 203.554 28.2345 205.206 28.2345C206.859 28.2345 207.97 28.483 208.725 28.9729C209.422 29.4247 209.923 30.0894 210.218 30.9503L207.617 31.4164C207.469 31.0038 207.219 30.678 206.873 30.445C206.492 30.1881 205.948 30.0573 205.26 30.0573C204.392 30.0573 203.779 30.1762 203.389 30.42C203.095 30.6162 202.948 30.873 202.948 31.1881C202.948 31.464 203.078 31.6982 203.335 31.8849C203.531 32.0252 204.053 32.2678 206.332 32.7684C207.967 33.1275 209.121 33.571 209.759 34.0835C210.372 34.5912 210.673 35.2844 210.673 36.2012C210.673 37.2059 210.249 38.0478 209.376 38.7755C208.506 39.5008 207.188 39.8683 205.462 39.8683L205.463 39.8706Z" fill="white"/>
<path d="M7.08295 25.6448C8.34875 23.582 11.3546 23.6071 12.5859 25.6907L19.671 37.681C20.2615 38.6802 19.5412 39.9425 18.3806 39.9425H4.43151C1.75314 39.9425 0.110523 37.0073 1.51135 34.7244L7.08295 25.6448Z" fill="white"/>
<path d="M17.1105 24.4309C18.6468 23.5439 20.6112 24.0703 21.4982 25.6065L26.9588 35.0646C27.8457 36.6008 27.3194 38.5652 25.7831 39.4522C24.2468 40.3392 22.2824 39.8128 21.3954 38.2765L15.9348 28.8185C15.0479 27.2822 15.5742 25.3178 17.1105 24.4309Z" fill="white"/>
</g>
</g>
<defs>
<clipPath id="clip0_3655_14275">
<rect width="209.87" height="16" fill="white" transform="translate(1 24)"/>
</clipPath>
</defs>
</svg>
